<svg width="1440" height="528" viewBox="0 0 1440 528" fill="none" xmlns="http://www.w3.org/2000/svg">
<circle opacity="0.24" cx="503" cy="358" r="308" stroke="#FFC700" stroke-width="100"/>
<path d="M1184.39 285.721C1188.69 284.567 1192.87 283.39 1196.92 282.19C1210.45 278.191 1222.6 273.96 1233.52 269.623C1245.23 264.972 1255.52 260.198 1264.54 255.453C1272.62 251.23 1280.46 246.549 1288 241.432C1292.52 238.356 1296.52 235.362 1300.06 232.499C1302.97 230.153 1305.56 227.895 1307.88 225.751C1314.78 219.362 1319.19 213.981 1321.83 210.294C1323.12 208.482 1323.99 207.079 1324.52 206.168C1324.98 205.38 1325.18 204.959 1325.18 204.959C1325.18 204.959 1321.56 202.876 1313.55 201.732C1309.49 201.152 1304.29 200.813 1297.87 201.11C1292.63 201.352 1288.92 203.689 1285.71 207.048C1279.18 213.86 1274.66 224.876 1263.44 231.168C1260.01 233.092 1255.95 234.574 1251.03 235.36C1236.35 237.699 1235.02 243.997 1233.88 250.195C1232.76 256.249 1231.83 262.208 1218.82 264.291C1218.37 264.362 1217.94 264.435 1217.51 264.51C1210.86 265.681 1206.73 267.261 1203.9 269.081C1202.4 270.039 1201.05 271.219 1199.91 272.58C1198.7 274 1197.75 275.485 1196.64 276.979C1194.38 280.018 1191.47 283.092 1184.39 285.721Z" fill="#F5F6F7"/>
<path fill-rule="evenodd" clip-rule="evenodd" d="M1184.39 285.721C1188.69 284.567 1192.87 283.39 1196.92 282.19C1210.45 278.191 1222.6 273.96 1233.52 269.623C1245.23 264.972 1255.52 260.198 1264.54 255.453C1272.62 251.23 1280.46 246.549 1288 241.432C1292.52 238.356 1296.52 235.362 1300.06 232.499C1302.97 230.153 1305.56 227.895 1307.88 225.751C1314.78 219.362 1319.19 213.981 1321.83 210.294C1323.12 208.482 1323.99 207.079 1324.52 206.168C1324.98 205.38 1325.18 204.959 1325.18 204.959C1325.18 204.959 1321.56 202.876 1313.55 201.732C1309.49 201.152 1304.29 200.813 1297.87 201.11C1292.63 201.352 1288.92 203.689 1285.71 207.048C1279.18 213.86 1274.66 224.876 1263.44 231.168C1260.01 233.092 1255.95 234.574 1251.03 235.36C1236.35 237.699 1235.02 243.997 1233.88 250.195C1232.76 256.249 1231.83 262.208 1218.82 264.291C1218.37 264.362 1217.94 264.435 1217.51 264.51C1210.86 265.681 1206.73 267.261 1203.9 269.081C1202.4 270.039 1201.05 271.219 1199.91 272.58C1198.7 274 1197.75 275.485 1196.64 276.979C1194.38 280.018 1191.47 283.092 1184.39 285.721Z" stroke="#3D3D3C" stroke-width="0.8" stroke-linecap="round" stroke-linejoin="round"/>
<path d="M1290.31 225.401L1288.81 228.912" stroke="#3D3D3C" stroke-width="0.8" stroke-linecap="round" stroke-linejoin="round"/>
<path d="M1331.14 515.355C1296.97 495.751 1282.58 507.557 1305.63 517.051C1328.69 526.544 1325.45 522.271 1325.45 522.271" fill="#049C4F"/>
<mask id="mask0_36_3290" style="mask-type:luminance" maskUnits="userSpaceOnUse" x="1294" y="504" width="38" height="20">
<path fill-rule="evenodd" clip-rule="evenodd" d="M1331.14 515.355C1296.97 495.751 1282.58 507.557 1305.63 517.051C1328.69 526.544 1325.45 522.271 1325.45 522.271" fill="white"/>
</mask>
<g mask="url(#mask0_36_3290)">
<path d="M1304.28 525.486C1278.1 491.745 1336.29 506.976 1328.63 533.249C1320.97 559.522 1340.66 497.884 1340.66 497.884C1340.66 497.884 1320.21 484.923 1317.55 485.859C1314.9 486.795 1272.79 503.338 1272.79 503.338" fill="#3699FF"/>
</g>
<path d="M1331.14 515.355C1296.97 495.751 1282.58 507.557 1305.63 517.051C1328.69 526.544 1325.45 522.271 1325.45 522.271" stroke="#3D3D3C" stroke-width="0.8" stroke-linecap="round" stroke-linejoin="round"/>
<path d="M1391.05 422.064C1368.73 477.617 1312.78 538.37 1312.78 538.37C1316.17 538.152 1319.58 538.152 1322.98 538.37C1328.83 538.725 1375.49 529.147 1375.49 529.147L1395.99 457.033L1399.39 427.982" fill="#3699FF"/>
<path d="M1382.18 435.639C1367.3 465.736 1338.46 510.307 1338.46 510.307L1382.18 435.639Z" fill="#049C4F"/>
<path d="M1382.18 435.639C1367.3 465.736 1338.46 510.307 1338.46 510.307" stroke="#3D3D3C" stroke-width="0.8" stroke-linecap="round" stroke-linejoin="round"/>
<path d="M1404.42 479.556C1380.9 500.883 1340.46 504.644 1328.63 524.658C1316.79 544.672 1382.83 503.338 1382.83 503.338" fill="#3699FF"/>
<path d="M1389.73 468.263C1376.62 484.309 1340.66 515.355 1340.66 515.355L1389.73 468.263Z" fill="#049C4F"/>
<path d="M1389.73 468.263C1376.62 484.309 1340.66 515.355 1340.66 515.355" stroke="#3D3D3C" stroke-width="0.8" stroke-linecap="round" stroke-linejoin="round"/>
<path d="M1325.98 525.748C1450.9 452.888 1458.66 509.854 1322.98 529.259L1325.98 525.748Z" fill="#049C4F"/>
<mask id="mask1_36_3290" style="mask-type:luminance" maskUnits="userSpaceOnUse" x="1322" y="489" width="101" height="41">
<path fill-rule="evenodd" clip-rule="evenodd" d="M1325.98 525.748C1450.9 452.888 1458.66 509.854 1322.98 529.259L1325.98 525.748Z" fill="white"/>
</mask>
<g mask="url(#mask1_36_3290)">
<path d="M1375.89 496.754C1440.08 476.895 1421.87 508.494 1366.87 523.156C1311.86 537.818 1446.15 499.741 1446.15 499.741C1446.15 499.741 1432.11 479.092 1430.97 478.564C1429.84 478.037 1395.99 483.368 1395.99 483.368" fill="#3699FF"/>
</g>
<path fill-rule="evenodd" clip-rule="evenodd" d="M1325.98 525.748C1450.9 452.888 1458.66 509.854 1322.98 529.259L1325.98 525.748Z" stroke="#3D3D3C" stroke-width="0.8" stroke-linecap="round" stroke-linejoin="round"/>
<path d="M1415.28 496.754C1395.17 506.457 1343.27 523.642 1343.27 523.642L1415.28 496.754Z" fill="#049C4F"/>
<path d="M1415.28 496.754C1395.17 506.457 1343.27 523.642 1343.27 523.642" stroke="#3D3D3C" stroke-width="0.8" stroke-linecap="round" stroke-linejoin="round"/>
<ellipse cx="1319.47" cy="324.408" rx="74.2571" ry="71.0293" transform="rotate(-15.3505 1319.47 324.408)" fill="#CFCFD0"/>
<mask id="mask2_36_3290" style="mask-type:luminance" maskUnits="userSpaceOnUse" x="1245" y="253" width="149" height="143">
<ellipse cx="1319.47" cy="324.408" rx="74.2571" ry="71.0293" transform="rotate(-15.3505 1319.47 324.408)" fill="white"/>
</mask>
<g mask="url(#mask2_36_3290)">
<ellipse cx="1311.09" cy="316.727" rx="74.2571" ry="71.0293" transform="rotate(-15.3505 1311.09 316.727)" fill="#F5F6F7"/>
</g>
<ellipse cx="1319.47" cy="324.408" rx="74.2571" ry="71.0293" transform="rotate(-15.3505 1319.47 324.408)" stroke="#3D3D3C" stroke-width="0.8" stroke-linecap="round" stroke-linejoin="round"/>
<path d="M1345.39 531.276L1329.11 336.419H1319.09L1306.02 530.994C1306.02 530.994 1334.63 535.374 1345.39 531.276Z" fill="#4B4D5C"/>
<mask id="mask3_36_3290" style="mask-type:luminance" maskUnits="userSpaceOnUse" x="1306" y="336" width="40" height="198">
<path fill-rule="evenodd" clip-rule="evenodd" d="M1345.39 531.276L1329.11 336.419H1319.09L1306.02 530.994C1306.02 530.994 1334.63 535.374 1345.39 531.276Z" fill="white"/>
</mask>
<g mask="url(#mask3_36_3290)">
<path d="M1315.71 380.4C1311.63 419.653 1307.11 458.857 1302.15 498.01C1300.74 509.103 1299.3 520.191 1297.83 531.274C1297.68 532.346 1298.84 533.249 1299.8 533.259C1300.99 533.271 1301.64 532.332 1301.78 531.274C1306.99 492.156 1311.76 452.983 1316.09 413.754C1317.32 402.64 1318.51 391.522 1319.66 380.4C1319.93 377.862 1315.97 377.881 1315.71 380.4Z" fill="#373947"/>
<path d="M1346.8 403.689L1392.43 374.608C1394.58 373.243 1392.59 369.806 1390.44 371.18L1344.8 400.262C1342.66 401.627 1344.64 405.064 1346.8 403.689Z" fill="#4B4D5C" stroke="#3D3D3C" stroke-width="0.8" stroke-linecap="round" stroke-linejoin="round"/>
<path d="M1353.28 392.361C1344.02 400.053 1334.89 408.03 1327.94 417.974C1326.48 420.07 1329.9 422.056 1331.36 419.978C1338.09 410.339 1347.1 402.62 1356.08 395.168C1356.9 394.485 1356.78 393.069 1356.08 392.361C1355.26 391.543 1354.11 391.676 1353.28 392.361Z" fill="#373947"/>
<path d="M1292.38 540.737C1332.33 553.764 1315.71 460.116 1325.71 496.513C1335.7 532.911 1337.11 422.465 1340.19 427.95C1343.26 433.435 1379.46 548.622 1379.46 548.622L1317.45 545.536L1298.18 544.508" fill="#373947"/>
</g>
<path fill-rule="evenodd" clip-rule="evenodd" d="M1345.39 531.276L1329.11 336.419H1319.09L1306.02 530.994C1306.02 530.994 1334.63 535.374 1345.39 531.276Z" stroke="#3D3D3C" stroke-width="0.8" stroke-linecap="round" stroke-linejoin="round"/>
<path d="M1314.64 443.339L1282.32 419.278C1280.2 417.698 1278.8 415.336 1278.44 412.718L1273.44 377.026H1279.01L1285.7 406.167C1286.29 408.734 1287.87 410.96 1290.11 412.351L1317.61 429.43" fill="#4B4D5C"/>
<mask id="mask4_36_3290" style="mask-type:luminance" maskUnits="userSpaceOnUse" x="1273" y="377" width="45" height="67">
<path fill-rule="evenodd" clip-rule="evenodd" d="M1314.64 443.339L1282.32 419.278C1280.2 417.698 1278.8 415.336 1278.44 412.718L1273.44 377.026H1279.01L1285.7 406.167C1286.29 408.734 1287.87 410.96 1290.11 412.351L1317.61 429.43" fill="white"/>
</mask>
<g mask="url(#mask4_36_3290)">
<path d="M1277.17 419.47C1289.35 429.478 1300.61 440.552 1310.82 452.561C1312.47 454.507 1315.26 451.688 1313.62 449.754C1303.4 437.745 1292.14 426.671 1279.97 416.663C1278.01 415.057 1275.2 417.85 1277.17 419.47H1277.17Z" fill="#8E1E07"/>
<path d="M1270.38 410.845C1280.29 422.742 1287.66 437.269 1301.37 445.395C1303.56 446.697 1305.56 443.267 1303.36 441.967C1290.04 434.069 1282.81 419.611 1273.18 408.038C1271.54 406.076 1268.76 408.897 1270.38 410.845L1270.38 410.845Z" fill="#8E1E07"/>
<path d="M1273.19 412.154C1285.58 422.478 1298.14 432.581 1310.87 442.463C1311.73 443.123 1312.84 443.28 1313.67 442.463C1314.36 441.787 1314.51 440.311 1313.67 439.656C1300.93 429.775 1288.37 419.672 1275.99 409.347C1274.05 407.726 1271.23 410.52 1273.19 412.154H1273.19Z" fill="#373947"/>
</g>
<path d="M1314.64 443.339L1282.32 419.278C1280.2 417.698 1278.8 415.336 1278.44 412.718L1273.44 377.026H1279.01L1285.7 406.167C1286.29 408.734 1287.87 410.96 1290.11 412.351L1317.61 429.43" stroke="#3D3D3C" stroke-width="0.8" stroke-linecap="round" stroke-linejoin="round"/>
<path d="M1329.89 405.209L1355.87 380.596C1357.54 379.012 1358.66 376.94 1359.08 374.676L1365.12 342.007H1368.46L1366.1 361.201L1364.06 377.755C1363.78 380.024 1362.8 382.148 1361.24 383.825L1327.69 419.543" fill="#4B4D5C"/>
<path d="M1329.89 405.209L1355.87 380.596C1357.54 379.012 1358.66 376.94 1359.08 374.676L1365.12 342.007H1368.46L1366.1 361.201L1364.06 377.755C1363.78 380.024 1362.8 382.148 1361.24 383.825L1327.69 419.543" stroke="#3D3D3C" stroke-width="0.8" stroke-linecap="round" stroke-linejoin="round"/>
<path d="M1381.45 354.353L1366.1 361.201L1364.58 366.254L1381.15 356.091L1381.45 354.353Z" fill="#4B4D5C" stroke="#3D3D3C" stroke-width="0.8" stroke-linecap="round" stroke-linejoin="round"/>
<path d="M1317.61 403.104L1306.31 393.549L1302.72 371.052H1305.27L1309.43 392.002L1319.47 397.907" fill="#4B4D5C"/>
<path d="M1317.61 403.104L1306.31 393.549L1302.72 371.052H1305.27L1309.43 392.002L1319.47 397.907" stroke="#3D3D3C" stroke-width="0.8" stroke-linecap="round" stroke-linejoin="round"/>
<ellipse cx="1383.74" cy="360.304" rx="48.6597" ry="36.777" transform="rotate(-14.3785 1383.74 360.304)" fill="#CFCFD0"/>
<mask id="mask5_36_3290" style="mask-type:luminance" maskUnits="userSpaceOnUse" x="1335" y="322" width="97" height="76">
<ellipse cx="1383.74" cy="360.304" rx="48.6597" ry="36.777" transform="rotate(-14.3785 1383.74 360.304)" fill="white"/>
</mask>
<g mask="url(#mask5_36_3290)">
<ellipse cx="1368.46" cy="348.909" rx="48.6597" ry="36.777" transform="rotate(-14.3785 1368.46 348.909)" fill="#F5F6F7"/>
</g>
<ellipse cx="1383.74" cy="360.304" rx="48.6597" ry="36.777" transform="rotate(-14.3785 1383.74 360.304)" stroke="#3D3D3C" stroke-width="0.8" stroke-linecap="round" stroke-linejoin="round"/>
<path d="M1251.11 332.739C1252.71 314.21 1279.73 295.46 1311.46 290.859C1343.19 286.258 1367.61 297.549 1366.02 316.078C1365.79 318.464 1365.2 320.802 1364.27 323.008" fill="#F5F6F7"/>
<path d="M1364.27 323.008C1357.59 339.073 1333.44 353.933 1305.67 357.958C1273.94 362.56 1249.52 351.269 1251.11 332.739" fill="#F5F6F7"/>
<path d="M1364.27 323.008C1357.59 339.073 1333.44 353.933 1305.67 357.958C1273.94 362.56 1249.52 351.269 1251.11 332.739" stroke="#3D3D3C" stroke-width="0.8" stroke-linecap="round" stroke-linejoin="round"/>
<ellipse cx="1263.1" cy="378.651" rx="50.2184" ry="41.6421" transform="rotate(-14.4681 1263.1 378.651)" fill="#CFCFD0"/>
<mask id="mask6_36_3290" style="mask-type:luminance" maskUnits="userSpaceOnUse" x="1213" y="336" width="100" height="85">
<ellipse cx="1263.1" cy="378.651" rx="50.2184" ry="41.6421" transform="rotate(-14.4681 1263.1 378.651)" fill="white"/>
</mask>
<g mask="url(#mask6_36_3290)">
<ellipse cx="1248.25" cy="373.508" rx="50.2184" ry="41.6421" transform="rotate(-14.4681 1248.25 373.508)" fill="#F5F6F7"/>
</g>
<ellipse cx="1263.1" cy="378.651" rx="50.2184" ry="41.6421" transform="rotate(-14.4681 1263.1 378.651)" stroke="#3D3D3C" stroke-width="0.8" stroke-linecap="round" stroke-linejoin="round"/>
<ellipse cx="1295.53" cy="292.853" rx="19.2184" ry="12.7162" transform="rotate(-41.8846 1295.53 292.853)" fill="#CFCFD0"/>
<path d="M1276.27 376.647C1275.15 379.878 1273.35 382.832 1270.99 385.308" stroke="#3D3D3C" stroke-width="0.8" stroke-linecap="round" stroke-linejoin="round"/>
<path d="M1346.35 285.593C1344.71 288.777 1342.64 291.718 1340.19 294.33" stroke="#3D3D3C" stroke-width="0.8" stroke-linecap="round" stroke-linejoin="round"/>
<path d="M1392.92 363.702L1389.85 366.282" stroke="#3D3D3C" stroke-width="0.8" stroke-linecap="round" stroke-linejoin="round"/>
<path d="M1324.82 462.998C1325.91 464.921 1327.29 466.657 1328.92 468.141" stroke="#3D3D3C" stroke-width="0.8" stroke-linecap="round" stroke-linejoin="round"/>
<path d="M1394.5 496.423L1390.91 500.023" stroke="#3D3D3C" stroke-width="0.8" stroke-linecap="round" stroke-linejoin="round"/>
<path d="M1364 455.278L1362.21 458.878" stroke="#3D3D3C" stroke-width="0.8" stroke-linecap="round" stroke-linejoin="round"/>
<path d="M1003.63 392.172C995.213 419.587 1016.9 428.565 1016.01 450.42C1016.01 450.42 1028.13 437.721 1011.84 415.952C1002.27 403.163 1003.63 392.172 1003.63 392.172Z" fill="#3699FF" stroke="#3D3D3C" stroke-width="0.8" stroke-linecap="round" stroke-linejoin="round"/>
<path d="M979.849 384.712C981.668 413.34 1005.12 414.013 1012.01 434.764C1012.01 434.764 1018.85 418.576 995.928 404.022C982.462 395.471 979.849 384.712 979.849 384.712Z" fill="#049C4F" stroke="#3D3D3C" stroke-width="0.8" stroke-linecap="round" stroke-linejoin="round"/>
<ellipse cx="1035.36" cy="521.348" rx="97.3634" ry="4.78824" fill="#F5F6F7" stroke="#3D3D3C" stroke-width="0.8" stroke-linecap="round" stroke-linejoin="round"/>
<path d="M1015.1 452.015L1014.25 445.733C1007.2 439.106 998.418 432.125 987.533 424.861L981.724 430.642L980.297 420.188C972.45 415.279 963.635 410.252 953.739 405.128C951.892 411.965 951.134 419.278 951.34 426.759L954.112 428.015L951.455 429.447C952.344 444.792 957.194 460.682 964.959 474.484L974.251 478.697L969.22 481.408C985.076 505.014 1009.94 520.257 1037.55 511.41C1037.55 511.41 1054.61 486.291 1017.87 449.26L1015.1 452.015Z" fill="#049C4F"/>
<mask id="mask7_36_3290" style="mask-type:luminance" maskUnits="userSpaceOnUse" x="951" y="405" width="91" height="109">
<path fill-rule="evenodd" clip-rule="evenodd" d="M1015.1 452.015L1014.25 445.733C1007.2 439.106 998.418 432.125 987.533 424.861L981.724 430.642L980.297 420.188C972.45 415.279 963.635 410.252 953.739 405.128C951.892 411.965 951.134 419.278 951.34 426.759L954.112 428.015L951.455 429.447C952.344 444.792 957.194 460.682 964.959 474.484L974.251 478.697L969.22 481.408C985.076 505.014 1009.94 520.257 1037.55 511.41C1037.55 511.41 1054.61 486.291 1017.87 449.26L1015.1 452.015Z" fill="white"/>
</mask>
<g mask="url(#mask7_36_3290)">
<path d="M992.901 418.536C1015.1 452.015 979.555 433.92 978.332 456.771C977.109 479.622 948.962 464.716 960.665 491.207C972.367 517.699 1011.01 521.349 1011.01 521.349L1018.39 491.673L1038.55 442.728L1020.34 427.537" fill="#3699FF"/>
</g>
<path fill-rule="evenodd" clip-rule="evenodd" d="M1015.1 452.015L1014.25 445.733C1007.2 439.106 998.418 432.125 987.533 424.861L981.724 430.642L980.297 420.188C972.45 415.279 963.635 410.252 953.739 405.128C951.892 411.965 951.134 419.278 951.34 426.759L954.112 428.015L951.455 429.447C952.344 444.792 957.194 460.682 964.959 474.484L974.251 478.697L969.22 481.408C985.076 505.014 1009.94 520.257 1037.55 511.41C1037.55 511.41 1054.61 486.291 1017.87 449.26L1015.1 452.015Z" stroke="#3D3D3C" stroke-width="0.8" stroke-linecap="round" stroke-linejoin="round"/>
<path d="M985.001 430.744C982.327 436.212 982.403 443.793 982.581 447.009C969.687 431.406 958.761 417.269 954.647 410.082C954.647 410.082 960.402 420.712 974.12 439.167L974.116 439.162C974.116 439.162 963.684 436.681 956.225 439.274C964.373 437.202 972.674 440.062 975.729 441.318C979.166 445.886 983.077 450.887 987.462 456.319C983.856 456.209 972.107 456.294 962.812 461.428C974.376 455.952 984.605 457.014 988.649 457.776C992.823 462.889 997.436 468.34 1002.49 474.129C998.845 474.896 986.918 477.666 977.611 482.807C991.657 476.156 1004.41 477.781 1005.91 478.002C1009.81 482.392 1013.97 486.95 1018.39 491.673C1013.45 491.319 1000.23 490.976 989.971 496.218C1002.94 490.663 1014.82 492.243 1020.02 493.402C1025.47 499.182 1031.31 505.185 1037.55 511.41L1038.55 509.564C1033.38 504.651 1025.53 496.342 1016.65 486.49C1016.03 481.976 1015.26 470.083 1021.89 458.136C1015.63 467.76 1014.32 480.448 1014.08 483.631C1009.47 478.478 1004.64 472.973 999.786 467.357C999.026 463.4 997.686 452.63 1002.85 442.188C997.921 450.508 997.447 461.845 997.406 464.594C992.961 459.418 988.535 454.184 984.294 449.078C983.404 445.204 982.313 437.68 985.001 430.744Z" fill="#3699FF"/>
<path d="M1170.96 478.938L1175.83 477.997C1180.7 472.174 1185.77 464.981 1190.97 456.119L1186.22 451.8L1194.31 450.235C1197.81 443.86 1201.35 436.72 1204.93 428.726C1199.52 427.565 1193.78 427.28 1187.96 427.759L1187.09 429.991L1185.86 427.964C1173.93 429.313 1161.74 433.799 1151.3 440.487L1148.41 447.967L1146.09 444.129C1128.34 457.591 1117.51 477.775 1125.58 499.095C1125.58 499.095 1145.9 511.434 1173.23 480.996L1170.96 478.938Z" fill="#049C4F" stroke="#3D3D3C" stroke-width="0.8" stroke-linecap="round" stroke-linejoin="round"/>
<path d="M1186.28 454.379C1181.9 452.51 1175.99 452.891 1173.49 453.168C1185.11 442.373 1195.67 433.188 1201.11 429.65C1201.11 429.65 1193.06 434.623 1179.24 446.187L1179.25 446.183C1179.25 446.183 1180.74 437.88 1178.4 432.129C1180.36 438.444 1178.48 445.088 1177.63 447.542C1174.22 450.436 1170.48 453.722 1166.43 457.399C1166.36 454.56 1165.8 445.332 1161.4 438.246C1166.16 447.1 1165.77 455.183 1165.34 458.393C1161.53 461.89 1157.48 465.747 1153.18 469.962C1152.42 467.132 1149.75 457.877 1145.35 450.782C1151.13 461.537 1150.41 471.63 1150.3 472.812C1147.04 476.067 1143.66 479.53 1140.16 483.202C1140.23 479.306 1139.94 468.906 1135.41 461.064C1140.3 471.021 1139.57 480.422 1138.88 484.553C1134.61 489.081 1130.17 493.928 1125.58 499.095L1127.06 499.807C1130.68 495.532 1136.83 489.013 1144.13 481.616C1147.63 480.934 1156.87 479.827 1166.47 484.526C1158.7 480.022 1148.75 479.529 1146.26 479.477C1150.08 475.635 1154.17 471.601 1158.34 467.551C1161.4 466.786 1169.74 465.276 1178.11 468.891C1171.41 465.37 1162.54 465.479 1160.4 465.564C1164.25 461.851 1168.14 458.151 1171.94 454.602C1174.93 453.738 1180.75 452.562 1186.28 454.379Z" fill="#190000"/>
<path d="M1030.77 392.212L1030.33 392.133C1030.35 392.02 1032.31 380.642 1029.28 367C1026.48 354.425 1018.75 337.295 997.766 327.1L997.959 326.698C1019.11 336.974 1026.9 354.242 1029.72 366.919C1032.77 380.645 1030.79 392.098 1030.77 392.212Z" fill="#049C4F" stroke="#3D3D3C" stroke-width="0.8" stroke-linecap="round" stroke-linejoin="round"/>
<ellipse cx="996.406" cy="328.481" rx="30.9193" ry="6.77745" transform="rotate(-17.1697 996.406 328.481)" fill="#3699FF"/>
<mask id="mask8_36_3290" style="mask-type:luminance" maskUnits="userSpaceOnUse" x="966" y="317" width="61" height="23">
<ellipse cx="996.406" cy="328.481" rx="30.9193" ry="6.77745" transform="rotate(-17.1697 996.406 328.481)" fill="white"/>
</mask>
<g mask="url(#mask8_36_3290)">
<ellipse cx="986.377" cy="326.374" rx="30.9193" ry="6.77745" transform="rotate(-17.1697 986.377 326.374)" fill="#049C4F"/>
</g>
<ellipse cx="996.406" cy="328.481" rx="30.9193" ry="6.77745" transform="rotate(-17.1697 996.406 328.481)" stroke="#3D3D3C" stroke-width="0.8" stroke-linecap="round" stroke-linejoin="round"/>
<path d="M1035.89 421.678L1048.49 364.566L1123.02 345.209L1138.88 393.662L1112.34 449.143L1141.03 521.349H1011.01L1035.89 421.678Z" fill="#F5F6F7"/>
<mask id="mask9_36_3290" style="mask-type:luminance" maskUnits="userSpaceOnUse" x="1011" y="345" width="131" height="177">
<path fill-rule="evenodd" clip-rule="evenodd" d="M1035.89 421.678L1048.49 364.566L1123.02 345.209L1138.88 393.662L1112.34 449.143L1141.03 521.349H1011.01L1035.89 421.678Z" fill="white"/>
</mask>
<g mask="url(#mask9_36_3290)">
<path d="M1040.23 348.786C1048.06 351.53 1056.18 354.422 1062.78 359.622C1069.39 364.833 1073.4 372.279 1074.06 380.702C1074.75 389.514 1072.42 398.327 1069.25 406.471C1065.78 415.402 1061.14 423.951 1056.34 432.219C1053.78 436.607 1051.1 440.918 1048.3 445.15C1045.56 449.27 1042.58 453.216 1039.84 457.326C1035.35 464.058 1031.56 473.665 1036.87 481.105C1039.42 484.692 1043.53 486.383 1047.6 487.61C1052.53 489.095 1057.52 490.398 1062.52 491.65C1072.57 494.17 1082.7 496.314 1092.91 498.084C1113.45 501.647 1134.22 503.685 1155.05 504.18C1157.67 504.241 1160.3 504.278 1162.92 504.29C1164.58 504.298 1164.59 501.702 1162.92 501.693C1142.04 501.597 1121.19 499.936 1100.55 496.725C1090.32 495.128 1080.15 493.154 1070.05 490.803C1064.94 489.612 1059.85 488.325 1054.79 486.943C1050.48 485.766 1045.67 484.856 1041.87 482.373C1038.35 480.069 1036.83 476.129 1036.91 472.015C1037.01 467.47 1039.05 463.327 1041.46 459.578C1044.08 455.5 1047.05 451.652 1049.75 447.627C1052.54 443.468 1055.21 439.23 1057.76 434.912C1062.68 426.569 1067.33 417.945 1071.02 408.973C1074.34 400.894 1076.85 392.182 1076.77 383.374C1076.68 374.974 1073.84 366.881 1067.96 360.806C1062.16 354.815 1054.37 351.266 1046.69 348.368C1044.78 347.644 1042.85 346.96 1040.92 346.283C1039.34 345.731 1038.67 348.238 1040.23 348.786H1040.23Z" fill="#CFCFD0"/>
<path d="M1147.36 355.155C1133.98 360.709 1121.32 367.859 1109.66 376.449C1098.9 384.392 1087.55 393.618 1081.59 405.927C1078.81 411.664 1077.48 417.962 1078.44 424.315C1079.2 429.442 1081.49 434.217 1084.33 438.497C1090.28 447.434 1098.61 454.588 1103.99 463.926C1106.9 468.976 1108.54 474.507 1108.26 480.379C1107.9 487.943 1104.81 495.121 1101.46 501.792C1100.63 503.44 1099.78 505.073 1098.92 506.703C1098.14 508.178 1100.37 509.491 1101.15 508.013C1107.52 495.961 1114.12 482.173 1108.98 468.436C1105.22 458.38 1097.2 450.804 1090.6 442.624C1087.41 438.669 1084.36 434.403 1082.53 429.62C1080.43 424.222 1080.15 418.289 1081.73 412.717C1085.37 399.782 1096.41 390.075 1106.55 382.06C1117.8 373.183 1130.09 365.706 1143.14 359.794C1144.77 359.057 1146.4 358.345 1148.05 357.658C1149.57 357.027 1148.9 354.514 1147.36 355.155H1147.36Z" fill="#CFCFD0"/>
<path d="M1119.55 326.698C1148.41 447.967 1027.65 500.666 1027 554.842C1026.35 609.019 1163.78 538.204 1167.67 539.509C1171.57 540.815 1201.11 392.173 1201.11 392.173L1153.94 312.904L1129.95 306.918" fill="#CFCFD0"/>
</g>
<path fill-rule="evenodd" clip-rule="evenodd" d="M1035.89 421.678L1048.49 364.566L1123.02 345.209L1138.88 393.662L1112.34 449.143L1141.03 521.349H1011.01L1035.89 421.678V421.678Z" stroke="#3D3D3C" stroke-width="0.8" stroke-linecap="round" stroke-linejoin="round"/>
<path d="M980.5 521.348H1014.99L1032.56 466.471L1046.17 454.901L1048.49 364.566L1038.97 359.566L1022.29 364.566L1011.68 392.219L1014.5 426.993L983.153 464.868L980.5 521.348Z" fill="#F5F6F7"/>
<mask id="mask10_36_3290" style="mask-type:luminance" maskUnits="userSpaceOnUse" x="980" y="359" width="69" height="163">
<path fill-rule="evenodd" clip-rule="evenodd" d="M980.5 521.348H1014.99L1032.56 466.471L1046.17 454.901L1048.49 364.566L1038.97 359.566L1022.29 364.566L1011.68 392.219L1014.5 426.993L983.153 464.868L980.5 521.348Z" fill="white"/>
</mask>
<g mask="url(#mask10_36_3290)">
<path d="M1002.76 382.433C1008.95 381.878 1016.23 381.236 1021.52 385.229C1026.04 388.649 1027.3 394.574 1026.97 399.968C1026.59 406.244 1024.02 412.14 1020.89 417.504C1017.4 423.493 1013.03 428.895 1008.53 434.142C999.592 444.562 989.912 454.791 984.797 467.783C982.31 474.101 981.163 480.944 981.93 487.719C982.702 494.528 985.103 501.046 988.534 506.95C995.797 519.446 1007.29 528.554 1018.8 536.902C1020.24 537.952 1021.7 538.996 1023.15 540.035C1024.51 541.008 1025.8 538.757 1024.46 537.794C1012.73 529.384 1000.53 520.682 992.486 508.42C988.724 502.688 985.904 496.294 984.768 489.498C983.628 482.67 984.561 475.757 986.972 469.305C991.887 456.158 1001.9 445.887 1010.83 435.421C1019.2 425.621 1028.25 414.215 1029.49 400.878C1030 395.324 1028.96 389.34 1025.15 385.076C1020.73 380.128 1013.86 379.248 1007.59 379.497C1005.98 379.561 1004.37 379.692 1002.76 379.836C1001.11 379.984 1001.1 382.581 1002.76 382.433H1002.76Z" fill="#CFCFD0"/>
<path d="M1063.86 398.383C1044.89 409.85 1031.09 428.193 1022.55 448.485C1012.63 472.07 1010.1 497.919 1011.22 523.307C1011.9 538.968 1013.92 554.536 1016.32 570.014C1016.57 571.66 1019.06 570.961 1018.81 569.324C1014.62 542.303 1011.62 514.702 1015.02 487.413C1017.8 465.093 1025.33 443.124 1038.77 424.961C1045.95 415.268 1054.85 406.861 1065.17 400.625C1066.59 399.764 1065.3 397.518 1063.86 398.383H1063.86Z" fill="#CFCFD0"/>
</g>
<path fill-rule="evenodd" clip-rule="evenodd" d="M980.5 521.348H1014.99L1032.56 466.471L1046.17 454.901L1048.49 364.566L1038.97 359.566L1022.29 364.566L1011.68 392.219L1014.5 426.993L983.153 464.868L980.5 521.348V521.348Z" stroke="#3D3D3C" stroke-width="0.8" stroke-linecap="round" stroke-linejoin="round"/>
<path d="M1022.29 364.566L1058.61 353.678L1095.59 347.7L1123.02 345.209L1085.31 356.133L1048.49 364.566H1022.29Z" fill="#F5F6F7" stroke="#3D3D3C" stroke-width="0.8" stroke-linecap="round" stroke-linejoin="round"/>
<path d="M1098.12 479.864L1097.67 479.849C1097.67 479.763 1097.93 471.192 1094.28 461.482C1090.91 452.535 1083.45 440.758 1066.97 435.465L1067.1 435.04C1083.76 440.389 1091.3 452.294 1094.7 461.339C1098.38 471.131 1098.12 479.779 1098.12 479.864Z" fill="#049C4F" stroke="#3D3D3C" stroke-width="0.8" stroke-linecap="round" stroke-linejoin="round"/>
<ellipse cx="1066.13" cy="436.57" rx="22.9913" ry="5.03603" transform="rotate(-25.2848 1066.13 436.57)" fill="#049C4F" stroke="#3D3D3C" stroke-width="0.8" stroke-linecap="round" stroke-linejoin="round"/>
<path d="M1096.77 442.728L1060.85 524.599H1267.18L1211.35 468.069L1096.77 442.728Z" fill="#ECEDEE"/>
<mask id="mask11_36_3290" style="mask-type:luminance" maskUnits="userSpaceOnUse" x="1060" y="442" width="208" height="83">
<path fill-rule="evenodd" clip-rule="evenodd" d="M1096.77 442.728L1060.85 524.599H1267.18L1211.35 468.069L1096.77 442.728Z" fill="white"/>
</mask>
<g mask="url(#mask11_36_3290)">
<path d="M1099.2 454.911C1067.53 541.788 1188.05 519.189 1236.6 526.137C1285.15 533.085 1022.29 579.211 1022.29 579.211L987.755 553.972L1066.13 452.8" fill="#CFCFD0"/>
</g>
<path fill-rule="evenodd" clip-rule="evenodd" d="M1096.77 442.728L1060.85 524.599H1267.18L1211.35 468.069L1096.77 442.728V442.728Z" stroke="#3D3D3C" stroke-width="0.8" stroke-linecap="round" stroke-linejoin="round"/>
<path d="M1102.44 452.8L1099.2 454.911L1060.85 524.599H1267.18L1216.2 483.664L1189.18 470.993L1102.44 452.8Z" fill="#ECEDEE"/>
<mask id="mask12_36_3290" style="mask-type:luminance" maskUnits="userSpaceOnUse" x="1060" y="452" width="208" height="73">
<path fill-rule="evenodd" clip-rule="evenodd" d="M1102.44 452.8L1099.2 454.911L1060.85 524.599H1267.18L1216.2 483.664L1189.18 470.993L1102.44 452.8Z" fill="white"/>
</mask>
<g mask="url(#mask12_36_3290)">
<path d="M1046.26 532.087C1053.06 518.947 1063.26 507.658 1075.72 499.715C1082.43 495.442 1090.15 491.864 1098.26 492.147C1105.65 492.404 1112.02 496.368 1117.98 500.38C1124.18 504.55 1130.27 508.581 1137.49 510.762C1144.88 512.995 1152.7 513.537 1160.37 513.216C1168.27 512.886 1176.11 511.674 1183.89 510.314C1192.71 508.771 1201.51 507.158 1210.33 505.578L1263.69 496.005L1270.31 494.819C1271.94 494.525 1271.25 492.023 1269.62 492.315L1215.59 502.006L1188.69 506.832C1180.66 508.272 1172.61 509.731 1164.47 510.371C1156.68 510.984 1148.74 510.883 1141.1 509.05C1137.32 508.161 1133.66 506.81 1130.21 505.028C1126.97 503.339 1123.95 501.291 1120.93 499.247C1114.99 495.224 1108.77 490.982 1101.54 489.871C1093.53 488.642 1085.6 491.196 1078.61 494.991C1065.5 502.114 1054.37 513.195 1046.69 525.984C1045.75 527.552 1044.86 529.15 1044.03 530.777C1043.26 532.258 1045.49 533.572 1046.26 532.087L1046.26 532.087Z" fill="#CFCFD0"/>
</g>
<path fill-rule="evenodd" clip-rule="evenodd" d="M1102.44 452.8L1099.2 454.911L1060.85 524.599H1267.18L1216.2 483.664L1189.18 470.993L1102.44 452.8V452.8Z" stroke="#3D3D3C" stroke-width="0.8" stroke-linecap="round" stroke-linejoin="round"/>
<path d="M1107.69 435.418L1096.77 442.728L1099.2 454.911C1102.11 455.399 1216.2 483.664 1216.2 483.664L1211.35 468.069L1107.69 435.418Z" fill="#ECEDEE"/>
<mask id="mask13_36_3290" style="mask-type:luminance" maskUnits="userSpaceOnUse" x="1096" y="435" width="121" height="49">
<path fill-rule="evenodd" clip-rule="evenodd" d="M1107.69 435.418L1096.77 442.728L1099.2 454.911C1102.11 455.399 1216.2 483.664 1216.2 483.664L1211.35 468.069L1107.69 435.418Z" fill="white"/>
</mask>
<g mask="url(#mask13_36_3290)">
<path d="M1050.08 447.763C1064.85 447.027 1079.64 446.328 1094.43 446.563C1109.04 446.794 1123.68 447.93 1137.99 450.965C1145.14 452.463 1152.17 454.478 1159.02 456.995C1166 459.575 1172.72 462.777 1179.32 466.19C1192.41 472.952 1205.1 480.569 1218.81 486.034C1232.22 491.379 1246.85 494.742 1261.31 492.758C1263.1 492.512 1264.88 492.185 1266.64 491.776C1268.26 491.401 1267.58 488.897 1265.96 489.272C1251.7 492.569 1236.92 489.914 1223.36 485C1209.46 479.962 1196.67 472.393 1183.63 465.515C1177.14 462.093 1170.56 458.828 1163.76 456.065C1156.98 453.322 1149.99 451.097 1142.86 449.406C1128.76 446.027 1114.25 444.556 1099.77 444.093C1085.04 443.622 1070.31 444.186 1055.6 444.895C1053.76 444.984 1051.92 445.074 1050.08 445.167C1048.43 445.249 1048.42 447.846 1050.08 447.763L1050.08 447.763Z" fill="#CFCFD0"/>
</g>
<path fill-rule="evenodd" clip-rule="evenodd" d="M1107.69 435.418L1096.77 442.728L1099.2 454.911C1102.11 455.399 1216.2 483.664 1216.2 483.664L1211.35 468.069L1107.69 435.418Z" stroke="#3D3D3C" stroke-width="0.8" stroke-linecap="round" stroke-linejoin="round"/>
<path d="M1163.79 366.508C1163.29 367.077 1162.59 368.356 1162.59 368.356L1163.19 368.817C1163.19 368.817 1164.07 368.071 1164.96 369.386C1165.84 370.7 1169.5 373.305 1171.68 371.932C1174.65 370.061 1170.55 367.063 1170.02 365.94C1169.12 364.05 1163.79 366.508 1163.79 366.508Z" fill="#4F4F5B" stroke="#3D3D3C" stroke-width="0.8" stroke-linecap="round" stroke-linejoin="round"/>
<path d="M1162.37 367.752C1162.37 367.752 1158.94 355.532 1166.05 352.583C1166.9 352.121 1166.44 356.278 1168.53 356.526C1170.62 356.775 1172.49 363.489 1166.05 366.26C1162.59 368.087 1162.59 368.355 1162.59 368.355L1162.37 367.752Z" fill="#4F4F5B" stroke="#3D3D3C" stroke-width="0.8" stroke-linecap="round" stroke-linejoin="round"/>
<path d="M1160.8 366.994C1159.24 366.793 1158.96 367.396 1160.8 367.988C1162.64 368.581 1164.7 372.133 1165.76 372.18C1166.82 372.228 1164.13 367.42 1160.8 366.994Z" fill="#4F4F5B" stroke="#3D3D3C" stroke-width="0.8" stroke-linecap="round" stroke-linejoin="round"/>
<path d="M1160.76 367.03C1160.52 366.739 1154.79 359.867 1157.05 356.672L1157.15 356.736C1155.99 358.364 1157.06 361.052 1158.15 363.021C1158.94 364.406 1159.84 365.723 1160.85 366.958L1160.76 367.03Z" fill="#4F4F5B" stroke="#3D3D3C" stroke-width="0.8" stroke-linecap="round" stroke-linejoin="round"/>
<ellipse cx="1157.1" cy="356.704" rx="0.530841" ry="0.532848" fill="#4F4F5B" stroke="#3D3D3C" stroke-width="0.8" stroke-linecap="round" stroke-linejoin="round"/>
<path d="M1160.97 367.25C1160.65 367.044 1153.18 362.149 1154.41 358.43L1154.52 358.465C1153.89 360.359 1155.69 362.618 1157.31 364.18C1158.46 365.275 1159.71 366.271 1161.03 367.157L1160.97 367.25Z" fill="#4F4F5B" stroke="#3D3D3C" stroke-width="0.8" stroke-linecap="round" stroke-linejoin="round"/>
<ellipse cx="1154.47" cy="358.447" rx="0.530841" ry="0.532848" fill="#4F4F5B" stroke="#3D3D3C" stroke-width="0.8" stroke-linecap="round" stroke-linejoin="round"/>
<path d="M989.96 312.975C990.455 313.543 991.155 314.822 991.155 314.822L990.557 315.284C990.557 315.284 989.676 314.538 988.792 315.852C987.907 317.167 984.251 319.772 982.068 318.398C979.095 316.527 983.196 313.53 983.731 312.407C984.631 310.517 989.96 312.975 989.96 312.975Z" fill="#ECEDEE" stroke="#3D3D3C" stroke-width="0.8" stroke-linecap="round" stroke-linejoin="round"/>
<path d="M991.375 314.218C991.375 314.218 994.808 301.998 987.695 299.05C986.845 298.588 987.305 302.744 985.217 302.993C983.129 303.241 981.254 309.955 987.695 312.726C991.155 314.554 991.155 314.822 991.155 314.822L991.375 314.218Z" fill="#ECEDEE" stroke="#3D3D3C" stroke-width="0.8" stroke-linecap="round" stroke-linejoin="round"/>
<path d="M992.944 313.46C994.51 313.26 994.784 313.863 992.944 314.455C991.104 315.047 989.051 318.599 987.99 318.647C986.928 318.694 989.618 313.887 992.944 313.46Z" fill="#ECEDEE" stroke="#3D3D3C" stroke-width="0.8" stroke-linecap="round" stroke-linejoin="round"/>
<path d="M992.987 313.496L992.901 313.424C993.909 312.189 994.811 310.872 995.598 309.486C996.693 307.518 997.756 304.83 996.603 303.203L996.693 303.138C998.957 306.334 993.231 313.205 992.987 313.496Z" fill="#ECEDEE" stroke="#3D3D3C" stroke-width="0.8" stroke-linecap="round" stroke-linejoin="round"/>
<ellipse cx="996.648" cy="303.171" rx="0.530841" ry="0.532848" fill="#ECEDEE" stroke="#3D3D3C" stroke-width="0.8" stroke-linecap="round" stroke-linejoin="round"/>
<path d="M992.776 313.717L992.716 313.623C994.038 312.737 995.284 311.741 996.44 310.646C998.059 309.085 999.858 306.826 999.228 304.931L999.334 304.896C1000.57 308.616 993.095 313.51 992.776 313.717Z" fill="#ECEDEE" stroke="#3D3D3C" stroke-width="0.8" stroke-linecap="round" stroke-linejoin="round"/>
<ellipse cx="999.281" cy="304.914" rx="0.530841" ry="0.532848" fill="#ECEDEE" stroke="#3D3D3C" stroke-width="0.8" stroke-linecap="round" stroke-linejoin="round"/>
<path d="M989.104 326.913L991.261 326.017" stroke="#3D3D3C" stroke-width="0.8" stroke-linecap="round" stroke-linejoin="round"/>
<path d="M1086.63 376.457L1080.57 381.693" stroke="#3D3D3C" stroke-width="0.8" stroke-linecap="round" stroke-linejoin="round"/>
<path d="M1064.92 436.887C1066.98 436.244 1068.9 435.239 1070.6 433.919" stroke="#3D3D3C" stroke-width="0.8" stroke-linecap="round" stroke-linejoin="round"/>
<path d="M1004.15 481.319C1004.45 482.872 1005.09 484.339 1006.02 485.615" stroke="#3D3D3C" stroke-width="0.8" stroke-linecap="round" stroke-linejoin="round"/>
<path d="M964.793 452.153C966.041 451.4 967.638 451.574 968.695 452.577" stroke="#3D3D3C" stroke-width="0.8" stroke-linecap="round" stroke-linejoin="round"/>
<path d="M1137.76 491.747C1139.89 493.299 1142.5 494.067 1145.13 493.92" stroke="#3D3D3C" stroke-width="0.8" stroke-linecap="round" stroke-linejoin="round"/>
<path d="M1201.05 469.117L1202.35 470.422" stroke="#3D3D3C" stroke-width="0.8" stroke-linecap="round" stroke-linejoin="round"/>
<path d="M1217.06 516.647L1218.36 517.083" stroke="#3D3D3C" stroke-width="0.8" stroke-linecap="round" stroke-linejoin="round"/>
<path d="M1170.71 439.528C1171.4 440.017 1171.74 440.87 1171.56 441.7" stroke="#3D3D3C" stroke-width="0.8" stroke-linecap="round" stroke-linejoin="round"/>
<path d="M1123.72 251.29C1111.36 272.82 1105 298.571 1116.03 296.846C1127.07 295.121 1158.82 282.569 1158.82 282.569L1182.71 332.402L1222.07 320.528C1222.07 320.528 1217.33 262.818 1216.27 258.94C1215.21 255.061 1181.33 260.293 1176.93 259.893C1172.54 259.493 1166.42 258.1 1158.13 265.525C1155.2 268.146 1130.21 276.557 1130.21 276.557L1134.16 251.258C1134.16 251.258 1145.22 249.328 1146.12 242.16C1147.02 234.992 1139.57 235.324 1132.19 238.622C1123.98 242.29 1123.72 251.29 1123.72 251.29Z" fill="#F5F6F7"/>
<path fill-rule="evenodd" clip-rule="evenodd" d="M1123.72 251.29C1111.36 272.82 1105 298.571 1116.03 296.846C1127.07 295.121 1158.82 282.569 1158.82 282.569L1182.71 332.402L1222.07 320.528C1222.07 320.528 1217.33 262.818 1216.27 258.94C1215.21 255.061 1181.33 260.293 1176.93 259.893C1172.54 259.493 1166.42 258.1 1158.13 265.525C1155.2 268.146 1130.21 276.557 1130.21 276.557L1134.16 251.258C1134.16 251.258 1145.22 249.328 1146.12 242.16C1147.02 234.992 1139.57 235.324 1132.19 238.622C1123.98 242.29 1123.72 251.29 1123.72 251.29Z" stroke="#3D3D3C" stroke-width="0.8" stroke-linecap="round" stroke-linejoin="round"/>
<path d="M1197.07 259.133L1197.71 239.988L1181.72 243.541L1181.1 245.08L1176.41 261.371" fill="#F5F6F7"/>
<mask id="mask14_36_3290" style="mask-type:luminance" maskUnits="userSpaceOnUse" x="1176" y="239" width="22" height="23">
<path fill-rule="evenodd" clip-rule="evenodd" d="M1197.07 259.133L1197.71 239.988L1181.72 243.541L1181.1 245.08L1176.41 261.371" fill="white"/>
</mask>
<g mask="url(#mask14_36_3290)">
<path d="M1167.82 261.273C1188.73 254.802 1181.59 247.268 1189.65 242.814C1197.71 238.36 1175.53 239.153 1175.53 239.153L1169.86 255.17" fill="#CFCFD0"/>
</g>
<path d="M1197.07 259.133L1197.71 239.988L1181.72 243.541L1181.1 245.08L1176.41 261.371" stroke="#3D3D3C" stroke-width="0.8" stroke-linecap="round" stroke-linejoin="round"/>
<path d="M1197.71 236.934L1199.07 233.339L1195.71 220.679L1178.87 219.226C1167.96 239.37 1172.03 251.847 1187.51 247.492" fill="#F5F6F7"/>
<mask id="mask15_36_3290" style="mask-type:luminance" maskUnits="userSpaceOnUse" x="1172" y="219" width="28" height="30">
<path fill-rule="evenodd" clip-rule="evenodd" d="M1197.71 236.934L1199.07 233.339L1195.71 220.679L1178.87 219.226C1167.96 239.37 1172.03 251.847 1187.51 247.492" fill="white"/>
</mask>
<g mask="url(#mask15_36_3290)">
<ellipse opacity="0.27" cx="1173.75" cy="234.62" rx="2.43201" ry="3.18297" transform="rotate(-76.696 1173.75 234.62)" fill="#CFCFD0"/>
<ellipse opacity="0.27" cx="1188.39" cy="238.045" rx="2.43201" ry="3.18297" transform="rotate(-76.696 1188.39 238.045)" fill="#CFCFD0"/>
<path d="M1177.73 232.269C1177.14 232.082 1176.8 231.446 1176.99 230.848L1177.56 229.016C1177.64 228.729 1177.84 228.488 1178.11 228.348C1178.37 228.207 1178.68 228.179 1178.97 228.268C1179.57 228.455 1179.9 229.091 1179.72 229.689L1179.15 231.521C1179.06 231.808 1178.86 232.048 1178.6 232.189C1178.33 232.329 1178.02 232.358 1177.73 232.269Z" fill="#3D3D3C"/>
<path d="M1185.95 234.16C1185.36 233.972 1185.02 233.337 1185.21 232.739L1185.77 230.907C1185.86 230.619 1186.06 230.379 1186.33 230.239C1186.59 230.098 1186.9 230.069 1187.19 230.158C1187.79 230.346 1188.12 230.981 1187.94 231.58L1187.37 233.412C1187.28 233.699 1187.08 233.939 1186.82 234.08C1186.55 234.22 1186.24 234.249 1185.95 234.16Z" fill="#3D3D3C"/>
<path d="M1179.49 225.627C1177.09 225.586 1177.32 226.982 1178.82 227.106C1180.33 227.23 1181.06 225.654 1179.49 225.627Z" fill="#3D3D3C"/>
<path d="M1187.94 227.496C1189.95 228.829 1189.16 229.806 1187.85 229.055C1186.55 228.304 1186.63 226.626 1187.94 227.496Z" fill="#3D3D3C"/>
<path d="M1182.53 233.592C1182.39 234.347 1181.8 233.925 1181.01 233.774C1180.21 233.623 1179.51 233.799 1179.66 233.045C1179.84 232.287 1180.59 231.807 1181.35 231.953C1182.12 232.099 1182.64 232.82 1182.53 233.592Z" fill="#CFCFD0"/>
<path d="M1177.23 236.72C1177.09 242.349 1182.65 241.169 1183.46 237.824C1183.5 237.65 1183.42 237.471 1183.27 237.375C1182.64 236.961 1180.77 235.972 1177.61 236.305C1177.4 236.328 1177.24 236.505 1177.23 236.72Z" fill="#CFCFD0"/>
<mask id="mask16_36_3290" style="mask-type:luminance" maskUnits="userSpaceOnUse" x="1177" y="236" width="7" height="5">
<path fill-rule="evenodd" clip-rule="evenodd" d="M1177.23 236.72C1177.09 242.349 1182.65 241.169 1183.46 237.824C1183.5 237.65 1183.42 237.471 1183.27 237.375C1182.64 236.961 1180.77 235.972 1177.61 236.305C1177.4 236.328 1177.24 236.505 1177.23 236.72Z" fill="white"/>
</mask>
<g mask="url(#mask16_36_3290)">
<ellipse opacity="0.29" cx="1180.46" cy="240.528" rx="2.81186" ry="2.5189" transform="rotate(-7.4374 1180.46 240.528)" fill="#3D3D3C"/>
<path d="M1178.36 236.049C1178.29 236.409 1178.24 236.905 1178.31 237.011C1178.79 237.668 1181.62 237.956 1182.07 237.715C1182.19 237.648 1182.42 236.491 1182.42 236.491L1178.82 235.935" fill="#ECEDEE"/>
</g>
</g>
<path d="M1197.71 236.934L1199.07 233.339L1195.71 220.679L1178.87 219.226C1167.96 239.37 1172.03 251.847 1187.51 247.492" stroke="#3D3D3C" stroke-width="0.8" stroke-linecap="round" stroke-linejoin="round"/>
<path d="M1194.7 238.958C1189.04 229.255 1193.7 224.409 1193.7 224.409C1153.57 225.722 1176.01 192.728 1191.75 211.851C1191.75 211.851 1219.63 211.122 1205.95 228.71C1211.87 244.744 1193.55 247.223 1194.7 238.958Z" fill="#4F4F5B" stroke="#3D3D3C" stroke-width="0.8" stroke-linecap="round" stroke-linejoin="round"/>
<path d="M1191.53 234.03C1203.04 229.719 1204.59 242.326 1192.83 242.29L1191.53 234.03Z" fill="#F5F6F7"/>
<path d="M1191.53 234.03C1203.04 229.719 1204.59 242.326 1192.83 242.29" stroke="#3D3D3C" stroke-width="0.8" stroke-linecap="round" stroke-linejoin="round"/>
<path d="M1335.35 417.717L1340.47 428.092C1340.47 428.092 1253.84 449.973 1249.1 449.343C1244.36 448.712 1193.26 382.234 1193.26 382.234L1228.62 359.527C1228.62 359.527 1259.69 420.249 1261.61 425.147C1261.61 425.147 1280.17 417.006 1307.76 417.362L1335.35 417.717Z" fill="#F5F6F7"/>
<mask id="mask17_36_3290" style="mask-type:luminance" maskUnits="userSpaceOnUse" x="1193" y="359" width="148" height="91">
<path fill-rule="evenodd" clip-rule="evenodd" d="M1335.35 417.717L1340.47 428.092C1340.47 428.092 1253.84 449.973 1249.1 449.343C1244.36 448.712 1193.26 382.234 1193.26 382.234L1228.62 359.527C1228.62 359.527 1259.69 420.249 1261.61 425.147C1261.61 425.147 1280.17 417.006 1307.76 417.362L1335.35 417.717Z" fill="white"/>
</mask>
<g mask="url(#mask17_36_3290)">
<path d="M1229.56 370.025C1260.49 372.336 1197.1 383.455 1209.09 405.345C1221.08 427.236 1182.77 410.477 1182.77 410.477L1193.85 372.499L1221.08 374.648" fill="#CFCFD0"/>
<path d="M1312.93 413.396C1322.5 426.632 1319.79 439.143 1319.79 439.143L1349.17 434.029L1344.34 413.939L1310.22 412.852" fill="#049C4F"/>
<path d="M1312.93 413.396C1322.5 426.632 1319.79 439.143 1319.79 439.143L1349.17 434.029L1344.34 413.939L1310.22 412.852" stroke="#3D3D3C" stroke-width="0.8" stroke-linecap="round" stroke-linejoin="round"/>
<ellipse cx="1246.05" cy="451.964" rx="13.7281" ry="12.1483" fill="#CFCFD0"/>
</g>
<path fill-rule="evenodd" clip-rule="evenodd" d="M1335.35 417.717L1340.47 428.092C1340.47 428.092 1253.84 449.973 1249.1 449.343C1244.36 448.712 1193.26 382.234 1193.26 382.234L1228.62 359.527C1228.62 359.527 1259.69 420.249 1261.61 425.147C1261.61 425.147 1280.17 417.006 1307.76 417.362L1335.35 417.717Z" stroke="#3D3D3C" stroke-width="0.8" stroke-linecap="round" stroke-linejoin="round"/>
<path d="M1198.53 393.317L1240.73 373.846L1221.39 343.87L1191.03 321.928L1180.19 326.111L1198.53 393.317Z" fill="#ECEDEE"/>
<mask id="mask18_36_3290" style="mask-type:luminance" maskUnits="userSpaceOnUse" x="1180" y="321" width="61" height="73">
<path fill-rule="evenodd" clip-rule="evenodd" d="M1198.53 393.317L1240.73 373.846L1221.39 343.87L1191.03 321.928L1180.19 326.111L1198.53 393.317Z" fill="white"/>
</mask>
<g mask="url(#mask18_36_3290)">
<path d="M1240.73 360.918L1193.26 382.234L1210.76 397.621L1247.36 380.486L1237.62 366.343" fill="#ECEDEE"/>
<path d="M1240.73 360.918L1193.26 382.234L1210.76 397.621L1247.36 380.486L1237.62 366.343" stroke="#3D3D3C" stroke-width="0.8" stroke-linecap="round" stroke-linejoin="round"/>
</g>
<path fill-rule="evenodd" clip-rule="evenodd" d="M1198.53 393.317L1240.73 373.846L1221.39 343.87L1191.03 321.928L1180.19 326.111L1198.53 393.317V393.317Z" stroke="#3D3D3C" stroke-width="0.8" stroke-linecap="round" stroke-linejoin="round"/>
<path d="M1182.76 360.918L1169.89 361.925C1169.89 361.925 1188 387.892 1215.15 387.892C1217.66 387.892 1215.15 365.524 1215.15 365.524L1182.76 360.918Z" fill="#049C4F" stroke="#3D3D3C" stroke-width="0.8" stroke-linecap="round" stroke-linejoin="round"/>
<path d="M1211.55 279.147C1211.55 279.147 1242.68 285.582 1266.02 298.728L1259.25 344.476C1255.64 348.597 1253.3 365.153 1266.78 360.408C1280.25 355.663 1270.05 342.514 1270.05 342.514C1270.05 342.514 1285.6 298.709 1286.11 294.612C1286.63 290.516 1240.61 270.131 1234.7 265.432C1228.8 260.732 1218.47 257.32 1210.76 257.523" fill="#F5F6F7"/>
<path d="M1211.55 279.147C1211.55 279.147 1242.68 285.582 1266.02 298.728L1259.25 344.476C1255.64 348.597 1253.3 365.153 1266.78 360.408C1280.25 355.663 1270.05 342.514 1270.05 342.514C1270.05 342.514 1285.6 298.709 1286.11 294.612C1286.63 290.516 1240.61 270.131 1234.7 265.432C1228.8 260.732 1218.47 257.32 1210.76 257.523" stroke="#3D3D3C" stroke-width="0.8" stroke-linecap="round" stroke-linejoin="round"/>
<path d="M1102.31 523.31C1102.31 523.31 1134.41 439.666 1142.76 406.222C1143.06 405.016 1143.6 403.882 1144.34 402.883C1152.19 392.238 1197.9 330.663 1205.13 328.934C1212.89 327.074 1215.15 319.832 1215.15 319.832C1215.15 319.832 1289.1 353.93 1168.67 415.085C1168.67 415.085 1158.88 460.699 1110.9 525.12L1102.31 523.31Z" fill="#F5F6F7"/>
<mask id="mask19_36_3290" style="mask-type:luminance" maskUnits="userSpaceOnUse" x="1102" y="319" width="136" height="207">
<path fill-rule="evenodd" clip-rule="evenodd" d="M1102.31 523.31C1102.31 523.31 1134.41 439.666 1142.76 406.222C1143.06 405.016 1143.6 403.882 1144.34 402.883C1152.19 392.238 1197.9 330.663 1205.13 328.934C1212.89 327.074 1215.15 319.832 1215.15 319.832C1215.15 319.832 1289.1 353.93 1168.67 415.085C1168.67 415.085 1158.88 460.699 1110.9 525.12L1102.31 523.31Z" fill="white"/>
</mask>
<g mask="url(#mask19_36_3290)">
<path d="M1178.81 359.527C1147.61 362.395 1218.67 378.114 1202.02 395.682C1185.38 413.25 1221.77 387.892 1221.77 387.892L1212.2 360.918L1175.8 352.282" fill="#CFCFD0"/>
<path d="M1111.34 490.818C1127.54 501.302 1136.81 496.258 1136.81 496.258L1123.08 520.011L1096.89 522.549L1097.25 505.505" fill="#049C4F"/>
<path d="M1111.34 490.818C1127.54 501.302 1136.81 496.258 1136.81 496.258L1123.08 520.011L1096.89 522.549L1097.25 505.505" stroke="#3D3D3C" stroke-width="0.8" stroke-linecap="round" stroke-linejoin="round"/>
<ellipse cx="1138.34" cy="402.063" rx="13.7281" ry="12.1483" fill="#CFCFD0"/>
</g>
<path fill-rule="evenodd" clip-rule="evenodd" d="M1102.31 523.31C1102.31 523.31 1134.41 439.666 1142.76 406.222C1143.06 405.016 1143.6 403.882 1144.34 402.883C1152.19 392.238 1197.9 330.663 1205.13 328.934C1212.89 327.074 1215.15 319.832 1215.15 319.832C1215.15 319.832 1289.1 353.93 1168.67 415.085C1168.67 415.085 1158.88 460.699 1110.9 525.12L1102.31 523.31Z" stroke="#3D3D3C" stroke-width="0.8" stroke-linecap="round" stroke-linejoin="round"/>
<path d="M1071.88 510.76L1074.71 509.758C1075.75 509.4 1076.86 509.331 1077.93 509.558L1104.95 515.161C1104.95 515.161 1108.92 519.687 1116.33 517.687L1116.16 537.127C1116.16 537.127 1083.71 523.424 1071.88 510.76Z" fill="#4F4F5B" stroke="#3D3D3C" stroke-width="0.8" stroke-linecap="round" stroke-linejoin="round"/>
<path d="M1072.05 510.54L1069.15 511.433C1069.15 511.433 1092.88 537.13 1117.17 540.617L1116.17 536.301C1116.17 536.301 1086.08 525.384 1072.05 510.54Z" fill="#ECEDEE" stroke="#3D3D3C" stroke-width="0.8" stroke-linecap="round" stroke-linejoin="round"/>
<path d="M1188.67 343.213L1169.89 361.925C1169.89 361.925 1203.85 377.314 1215.15 387.892C1215.15 387.892 1261.68 356.193 1228.63 319.968L1191.03 321.928L1183.57 326.571L1180.19 326.111" fill="#ECEDEE"/>
<mask id="mask20_36_3290" style="mask-type:luminance" maskUnits="userSpaceOnUse" x="1169" y="319" width="72" height="69">
<path fill-rule="evenodd" clip-rule="evenodd" d="M1188.67 343.213L1169.89 361.925C1169.89 361.925 1203.85 377.314 1215.15 387.892C1215.15 387.892 1261.68 356.193 1228.63 319.968L1191.03 321.928L1183.57 326.571L1180.19 326.111" fill="white"/>
</mask>
<g mask="url(#mask20_36_3290)">
<path d="M1179.19 316.16C1175.18 337.302 1190.49 332.461 1223.28 328.107C1256.07 323.753 1220.26 387.892 1220.26 387.892L1261.22 346.934L1251.8 311.104L1210.82 306.867" fill="#CFCFD0"/>
<path d="M1169.97 351.657C1189.91 354.104 1203.1 364.802 1203.1 364.802C1203.1 364.802 1238.95 340.928 1218.23 327.662L1226.95 325.715C1241.94 350.115 1212.67 369.607 1212.67 369.607C1212.67 369.607 1227.85 379.942 1228.12 384.838C1228.39 389.733 1209.15 398.437 1209.15 398.437L1157.94 363.352" fill="#ECEDEE"/>
<path d="M1169.97 351.657C1189.91 354.104 1203.1 364.802 1203.1 364.802C1203.1 364.802 1238.95 340.928 1218.23 327.662V327.662L1226.95 325.715V325.715C1241.94 350.115 1212.67 369.607 1212.67 369.607C1212.67 369.607 1227.85 379.942 1228.12 384.838C1228.39 389.733 1209.15 398.437 1209.15 398.437L1157.94 363.352" stroke="#3D3D3C" stroke-width="0.8" stroke-linecap="round" stroke-linejoin="round"/>
</g>
<path d="M1188.67 343.213L1169.89 361.925C1169.89 361.925 1203.85 377.314 1215.15 387.892C1215.15 387.892 1261.68 356.193 1228.63 319.968L1191.03 321.928L1183.57 326.571L1180.19 326.111" stroke="#3D3D3C" stroke-width="0.8" stroke-linecap="round" stroke-linejoin="round"/>
<path d="M1170.04 259.631L1174.63 259.285C1174.63 259.285 1164.75 275.36 1172.99 275.934C1181.22 276.508 1200.3 257.654 1200.3 257.654L1207.53 257.394C1207.53 257.394 1184.73 290.745 1218.9 283.723L1238.61 321.061C1238.61 321.061 1222.96 331.876 1178.83 329.415C1178.83 329.415 1159.71 297.997 1159.67 279.209C1159.65 268.126 1170.04 259.631 1170.04 259.631Z" fill="#049C4F"/>
<mask id="mask21_36_3290" style="mask-type:luminance" maskUnits="userSpaceOnUse" x="1159" y="257" width="80" height="73">
<path fill-rule="evenodd" clip-rule="evenodd" d="M1170.04 259.631L1174.63 259.285C1174.63 259.285 1164.75 275.36 1172.99 275.934C1181.22 276.508 1200.3 257.654 1200.3 257.654L1207.53 257.394C1207.53 257.394 1184.73 290.745 1218.9 283.723L1238.61 321.061C1238.61 321.061 1222.96 331.876 1178.83 329.415C1178.83 329.415 1159.71 297.997 1159.67 279.209C1159.65 268.126 1170.04 259.631 1170.04 259.631Z" fill="white"/>
</mask>
<g mask="url(#mask21_36_3290)">
<path d="M1159.67 268.34L1173.48 267.615L1172.72 270.698L1158.12 272.148L1161.19 267.071" fill="#ECEDEE"/>
<path d="M1159.67 268.34L1173.48 267.615L1172.72 270.698L1158.12 272.148L1161.19 267.071" stroke="#3D3D3C" stroke-width="0.8" stroke-linecap="round" stroke-linejoin="round"/>
</g>
<path fill-rule="evenodd" clip-rule="evenodd" d="M1170.04 259.631L1174.63 259.285C1174.63 259.285 1164.75 275.36 1172.99 275.934C1181.22 276.508 1200.3 257.654 1200.3 257.654L1207.53 257.394C1207.53 257.394 1184.73 290.745 1218.9 283.723L1238.61 321.061C1238.61 321.061 1222.96 331.876 1178.83 329.415C1178.83 329.415 1159.71 297.997 1159.67 279.209C1159.65 268.126 1170.04 259.631 1170.04 259.631Z" stroke="#3D3D3C" stroke-width="0.8" stroke-linecap="round" stroke-linejoin="round"/>
<path d="M1353.33 460.806L1350.97 458.856C1350.11 458.123 1349.45 457.184 1349.04 456.125L1338.62 429.219C1338.62 429.219 1340.02 423.225 1334.36 417.797L1349.83 407.251C1349.83 407.251 1356.84 443.41 1353.33 460.806Z" fill="#4F4F5B" stroke="#3D3D3C" stroke-width="0.8" stroke-linecap="round" stroke-linejoin="round"/>
<path d="M1353.05 460.771L1355.36 462.843C1355.36 462.843 1362.63 427.78 1352.04 404.443L1349.17 407.699C1349.17 407.699 1357.08 440.239 1353.05 460.771Z" fill="#ECEDEE" stroke="#3D3D3C" stroke-width="0.8" stroke-linecap="round" stroke-linejoin="round"/>
<path d="M1183.85 212.952C1183.69 214.157 1184.2 215.351 1185.17 216.079" stroke="#3D3D3C" stroke-width="0.8" stroke-linecap="round" stroke-linejoin="round"/>
<path d="M1195.78 235.708C1195.97 235.92 1196.11 236.166 1196.21 236.433C1196.25 236.539 1196.28 236.652 1196.27 236.767C1196.25 237.114 1195.91 237.335 1195.6 237.498" stroke="#3D3D3C" stroke-width="0.8" stroke-linecap="round" stroke-linejoin="round"/>
<path d="M1265.97 299.134C1266.56 297.48 1267.42 295.934 1268.51 294.557" stroke="#3D3D3C" stroke-width="0.8" stroke-linecap="round" stroke-linejoin="round"/>
<path d="M1130.3 277.134L1129.76 277.678" stroke="#3D3D3C" stroke-width="0.8" stroke-linecap="round" stroke-linejoin="round"/>
<path d="M1208.7 309.827C1207.39 311.944 1205.32 313.475 1202.91 314.103" stroke="#3D3D3C" stroke-width="0.8" stroke-linecap="round" stroke-linejoin="round"/>
<path d="M1195.33 346.761L1196.15 348.121" stroke="#3D3D3C" stroke-width="0.8" stroke-linecap="round" stroke-linejoin="round"/>
<path d="M1167.68 414.626C1165.2 414.318 1163.02 412.826 1161.83 410.623" stroke="#3D3D3C" stroke-width="0.8" stroke-linecap="round" stroke-linejoin="round"/>
<path d="M1259.81 425.886L1258.17 426.965" stroke="#3D3D3C" stroke-width="0.8" stroke-linecap="round" stroke-linejoin="round"/>
<path d="M1102.2 507.504L1101.97 515.141C1099.78 512.412 1097.86 509.475 1096.25 506.371" stroke="#3D3D3C" stroke-width="0.8" stroke-linecap="round" stroke-linejoin="round"/>
<path d="M1335.16 435.723L1339.86 432.904C1337.96 436.395 1336.07 439.886 1334.17 443.377" stroke="#3D3D3C" stroke-width="0.8" stroke-linecap="round" stroke-linejoin="round"/>
<path d="M991.229 311.333C995.532 310.178 999.71 309.001 1003.76 307.801C1017.29 303.802 1029.44 299.572 1040.36 295.235C1052.07 290.584 1062.36 285.81 1071.38 281.064C1079.46 276.842 1087.3 272.161 1094.84 267.044C1099.36 263.967 1103.36 260.974 1106.9 258.11C1109.81 255.765 1112.4 253.507 1114.72 251.362C1121.62 244.974 1126.03 239.593 1128.67 235.906C1129.96 234.094 1130.83 232.691 1131.36 231.78C1131.82 230.991 1132.02 230.571 1132.02 230.571C1132.02 230.571 1128.4 228.488 1120.39 227.344C1116.33 226.763 1111.13 226.424 1104.71 226.721C1099.47 226.963 1095.77 229.3 1092.55 232.66C1086.02 239.471 1081.5 250.487 1070.28 256.78C1066.85 258.703 1062.79 260.185 1057.87 260.971C1043.19 263.311 1041.86 269.609 1040.72 275.807C1039.6 281.861 1038.67 287.819 1025.66 289.902C1025.21 289.974 1024.78 290.047 1024.35 290.121C1017.7 291.292 1013.57 292.873 1010.74 294.692C1009.24 295.65 1007.89 296.83 1006.75 298.192C1005.54 299.612 1004.59 301.097 1003.48 302.591C1001.22 305.63 998.309 308.704 991.229 311.333Z" fill="#F5F6F7"/>
<path fill-rule="evenodd" clip-rule="evenodd" d="M991.229 311.333C995.532 310.179 999.71 309.001 1003.76 307.801C1017.29 303.802 1029.44 299.572 1040.36 295.235C1052.07 290.584 1062.36 285.81 1071.38 281.064C1079.46 276.842 1087.3 272.161 1094.84 267.044C1099.36 263.967 1103.36 260.974 1106.9 258.11C1109.81 255.765 1112.4 253.507 1114.72 251.362C1121.62 244.974 1126.03 239.593 1128.67 235.906C1129.96 234.094 1130.83 232.691 1131.36 231.78C1131.82 230.991 1132.02 230.571 1132.02 230.571C1132.02 230.571 1128.4 228.488 1120.39 227.344C1116.33 226.763 1111.13 226.424 1104.71 226.721C1099.47 226.963 1095.77 229.3 1092.55 232.66C1086.02 239.471 1081.5 250.487 1070.28 256.78C1066.85 258.703 1062.79 260.185 1057.87 260.971C1043.19 263.311 1041.86 269.609 1040.72 275.807C1039.6 281.861 1038.67 287.819 1025.66 289.902C1025.21 289.974 1024.78 290.047 1024.35 290.121C1017.7 291.292 1013.57 292.873 1010.74 294.692C1009.24 295.65 1007.89 296.83 1006.75 298.192C1005.54 299.612 1004.59 301.097 1003.48 302.591C1001.22 305.63 998.309 308.704 991.229 311.333Z" stroke="#3D3D3C" stroke-width="0.8" stroke-linecap="round" stroke-linejoin="round"/>
<path d="M1097.15 251.013L1095.65 254.524" stroke="#3D3D3C" stroke-width="0.8" stroke-linecap="round" stroke-linejoin="round"/>
<mask id="mask22_36_3290" style="mask-type:luminance" maskUnits="userSpaceOnUse" x="-49" y="181" width="552" height="414">
<rect x="-49" y="181" width="552" height="414" fill="white"/>
</mask>
<g mask="url(#mask22_36_3290)">
<path opacity="0.16" d="M411.389 476.094C442.425 373.929 385 291.109 283.126 291.109C181.253 291.109 73.5088 373.929 42.4727 476.094C37.1595 493.584 34.4414 510.506 34.0925 526.544H389.117C398.512 510.506 406.075 493.584 411.389 476.094Z" fill="#049C4F"/>
<mask id="mask23_36_3290" style="mask-type:luminance" maskUnits="userSpaceOnUse" x="34" y="291" width="386" height="236">
<path fill-rule="evenodd" clip-rule="evenodd" d="M411.389 476.094C442.425 373.929 385 291.109 283.126 291.109C181.253 291.109 73.5088 373.929 42.4727 476.094C37.1595 493.584 34.4414 510.506 34.0925 526.544H389.117C398.512 510.506 406.075 493.584 411.389 476.094Z" fill="white"/>
</mask>
<g mask="url(#mask23_36_3290)">
<rect x="50.5828" y="393.883" width="15.1402" height="23.7519" fill="#EBEDF3"/>
<mask id="mask24_36_3290" style="mask-type:luminance" maskUnits="userSpaceOnUse" x="50" y="393" width="16" height="25">
<rect x="50.5828" y="393.883" width="15.1402" height="23.7519" fill="white"/>
</mask>
<g mask="url(#mask24_36_3290)">
<path d="M70.6394 396.512C49.046 395.462 50.9889 405.524 51.5399 410.469C52.0908 415.415 44.0103 405.759 44.0103 405.759L46.765 386.595L61.8242 387.697" fill="#F64E60"/>
</g>
<rect x="50.5828" y="393.883" width="15.1402" height="23.7519" stroke="#3D3D3C" stroke-width="0.8" stroke-linecap="round" stroke-linejoin="round"/>
<rect x="49.0457" y="391.444" width="18.214" height="4.01868" fill="#4F4F5B" stroke="#3D3D3C" stroke-width="0.8" stroke-linecap="round" stroke-linejoin="round"/>
<rect x="28.9253" y="434.576" width="234.732" height="94.475" fill="#EBEDF3"/>
<mask id="mask25_36_3290" style="mask-type:luminance" maskUnits="userSpaceOnUse" x="28" y="434" width="236" height="96">
<rect x="28.9253" y="434.576" width="234.732" height="94.475" fill="white"/>
</mask>
<g mask="url(#mask25_36_3290)">
<rect x="18.8308" y="498.805" width="169.16" height="20.8136" fill="#EBEDF3"/>
</g>
<rect x="28.9253" y="434.576" width="234.732" height="94.475" stroke="#3D3D3C" stroke-width="0.8" stroke-linecap="round" stroke-linejoin="round"/>
<path d="M263.657 408.315H28.9252L18.8308 434.576H273.752L263.657 408.315Z" fill="white"/>
<path fill-rule="evenodd" clip-rule="evenodd" d="M263.657 408.315H28.9252L18.8308 434.576H273.752L263.657 408.315V408.315Z" stroke="#3D3D3C" stroke-width="0.8" stroke-linecap="round" stroke-linejoin="round"/>
<rect x="58.1528" y="456.771" width="33.5114" height="67.6369" fill="#4F4F5B"/>
<mask id="mask26_36_3290" style="mask-type:luminance" maskUnits="userSpaceOnUse" x="58" y="456" width="34" height="69">
<rect x="58.1528" y="456.771" width="33.5114" height="67.6369" fill="white"/>
</mask>
<g mask="url(#mask26_36_3290)">
<path d="M91.6642 456.771C89.2768 527.604 92.3098 522.796 54.6617 523.197C17.0136 523.597 101.82 529.051 101.82 529.051L100.758 451.423L89.5502 447.199" fill="#EBEDF3"/>
</g>
<rect x="58.1528" y="456.771" width="33.5114" height="67.6369" stroke="#3D3D3C" stroke-width="0.8" stroke-linecap="round" stroke-linejoin="round"/>
<rect x="53.3994" y="453.838" width="44.6608" height="5.86597" fill="white" stroke="#3D3D3C" stroke-width="0.8" stroke-linecap="round" stroke-linejoin="round"/>
<rect x="117.802" y="452.458" width="37.0424" height="25.8854" fill="white" stroke="#3D3D3C" stroke-width="0.8" stroke-linecap="round" stroke-linejoin="round"/>
<rect x="115.776" y="478.344" width="41.0944" height="5.0164" fill="#EBEDF3" stroke="#3D3D3C" stroke-width="0.8" stroke-linecap="round" stroke-linejoin="round"/>
<rect x="122.112" y="455.883" width="28.4217" height="19.0346" fill="white" stroke="#3D3D3C" stroke-width="0.8" stroke-linecap="round" stroke-linejoin="round"/>
<rect x="122.112" y="455.883" width="9.02811" height="19.0346" fill="white" stroke="#3D3D3C" stroke-width="0.8" stroke-linecap="round" stroke-linejoin="round"/>
<rect x="89.085" y="479.564" width="0.930203" height="13.9601" fill="white" stroke="#3D3D3C" stroke-width="0.8" stroke-linecap="round" stroke-linejoin="round"/>
<path d="M341.076 373.097V361.899L252.801 301.778L164.525 361.899V373.097H341.076Z" fill="white" stroke="#3D3D3C" stroke-width="0.8" stroke-linecap="round" stroke-linejoin="round"/>
<rect x="164.526" y="521.174" width="176.55" height="7.87676" fill="#4F4F5B"/>
<mask id="mask27_36_3290" style="mask-type:luminance" maskUnits="userSpaceOnUse" x="164" y="521" width="178" height="9">
<rect x="164.526" y="521.174" width="176.55" height="7.87676" fill="white"/>
</mask>
<g mask="url(#mask27_36_3290)">
<path d="M218.032 512.508C197.541 529.051 201.206 544.717 201.206 544.717L225.29 542.513V514.598" fill="#EBEDF3"/>
</g>
<rect x="164.526" y="521.174" width="176.55" height="7.87676" stroke="#3D3D3C" stroke-width="0.8" stroke-linecap="round" stroke-linejoin="round"/>
<path d="M334.957 521.174H170.644V365.608L252.801 309.655L334.957 365.608V521.174Z" fill="#EBEDF3"/>
<mask id="mask28_36_3290" style="mask-type:luminance" maskUnits="userSpaceOnUse" x="170" y="309" width="165" height="213">
<path fill-rule="evenodd" clip-rule="evenodd" d="M334.957 521.174H170.644V365.608L252.801 309.655L334.957 365.608V521.174Z" fill="white"/>
</mask>
<g mask="url(#mask28_36_3290)">
<path d="M349.602 438.263C296.365 449.036 287.569 481.813 287.569 481.813C287.569 481.813 244.796 457.034 229.128 493.525C229.128 493.525 205.131 500.489 203.173 525.113C201.214 549.737 327.075 550.716 327.075 550.716L369.681 456.771L362.335 446.403" fill="#F64E60"/>
</g>
<path fill-rule="evenodd" clip-rule="evenodd" d="M334.957 521.174H170.644V365.608L252.801 309.655L334.957 365.608V521.174V521.174Z" stroke="#3D3D3C" stroke-width="0.8" stroke-linecap="round" stroke-linejoin="round"/>
<rect x="221.46" y="359.391" width="62.6806" height="43.8016" fill="white" stroke="#3D3D3C" stroke-width="0.8" stroke-linecap="round" stroke-linejoin="round"/>
<rect x="218.032" y="403.193" width="69.537" height="4.13216" fill="#EBEDF3" stroke="#3D3D3C" stroke-width="0.8" stroke-linecap="round" stroke-linejoin="round"/>
<rect x="225.29" y="364.475" width="55.0214" height="33.6336" fill="white" stroke="#3D3D3C" stroke-width="0.8" stroke-linecap="round" stroke-linejoin="round"/>
<rect x="225.29" y="364.475" width="17.4774" height="33.6336" fill="white" stroke="#3D3D3C" stroke-width="0.8" stroke-linecap="round" stroke-linejoin="round"/>
<rect x="49.0457" y="523.197" width="52.7745" height="5.85433" fill="white" stroke="#3D3D3C" stroke-width="0.8" stroke-linecap="round" stroke-linejoin="round"/>
<path d="M381.522 472.919C380.826 472.919 380.135 472.938 379.447 472.976C370.388 461.214 356.855 453.738 341.725 453.738C319.706 453.738 301.06 469.56 294.687 491.409C279.214 494.111 267.386 508.82 267.386 526.566C267.386 527.73 267.441 528.88 267.54 530.015H420.554C421.631 525.946 422.176 521.755 422.175 517.545C422.175 492.899 403.974 472.919 381.522 472.919Z" fill="#EBEDF3"/>
<mask id="mask29_36_3290" style="mask-type:luminance" maskUnits="userSpaceOnUse" x="267" y="453" width="156" height="78">
<path fill-rule="evenodd" clip-rule="evenodd" d="M381.522 472.919C380.826 472.919 380.135 472.938 379.447 472.976C370.388 461.214 356.855 453.738 341.725 453.738C319.706 453.738 301.06 469.56 294.687 491.409C279.214 494.111 267.386 508.82 267.386 526.566C267.386 527.73 267.441 528.88 267.54 530.015H420.554C421.631 525.946 422.176 521.755 422.175 517.545C422.175 492.899 403.974 472.919 381.522 472.919Z" fill="white"/>
</mask>
<g mask="url(#mask29_36_3290)">
<path d="M272.102 483.745C340.787 470.89 332.364 539.052 332.364 539.052L275.408 525.113" fill="#F64E60"/>
</g>
<path fill-rule="evenodd" clip-rule="evenodd" d="M381.522 472.919C380.826 472.919 380.135 472.938 379.447 472.976C370.388 461.214 356.855 453.738 341.725 453.738C319.706 453.738 301.06 469.56 294.687 491.409C279.214 494.111 267.386 508.82 267.386 526.566C267.386 527.73 267.441 528.88 267.54 530.015H420.554C421.631 525.946 422.176 521.755 422.175 517.545C422.175 492.899 403.974 472.919 381.522 472.919Z" stroke="#3D3D3C" stroke-width="0.8" stroke-linecap="round" stroke-linejoin="round"/>
<path d="M293.037 490.153C292.552 490.153 292.069 490.166 291.589 490.193C285.264 481.981 275.816 476.762 265.253 476.762C249.88 476.762 236.862 487.808 232.413 503.062C221.61 504.948 213.353 515.218 213.353 527.607C213.353 528.42 213.391 529.223 213.46 530.015H320.288C321.04 527.174 321.42 524.248 321.419 521.309C321.419 504.102 308.712 490.153 293.037 490.153Z" fill="#EBEDF3"/>
<mask id="mask30_36_3290" style="mask-type:luminance" maskUnits="userSpaceOnUse" x="213" y="476" width="109" height="55">
<path fill-rule="evenodd" clip-rule="evenodd" d="M293.037 490.153C292.552 490.153 292.069 490.166 291.589 490.193C285.264 481.981 275.816 476.762 265.253 476.762C249.88 476.762 236.862 487.808 232.413 503.062C221.61 504.948 213.353 515.218 213.353 527.607C213.353 528.42 213.391 529.223 213.46 530.015H320.288C321.04 527.174 321.42 524.248 321.419 521.309C321.419 504.102 308.712 490.153 293.037 490.153Z" fill="white"/>
</mask>
<g mask="url(#mask30_36_3290)">
<path d="M263.658 470.89C205.132 558.062 267.328 516.862 326.095 534.034C384.863 551.206 218.032 560.16 218.032 560.16L175.258 538.962C175.258 538.962 232.073 472.849 234.029 472.359" fill="#F64E60"/>
</g>
<path fill-rule="evenodd" clip-rule="evenodd" d="M293.037 490.153C292.552 490.153 292.069 490.166 291.589 490.193C285.264 481.981 275.816 476.762 265.253 476.762C249.88 476.762 236.862 487.808 232.413 503.062C221.61 504.948 213.353 515.218 213.353 527.607C213.353 528.42 213.391 529.223 213.46 530.015H320.288C321.04 527.174 321.42 524.248 321.419 521.309C321.419 504.102 308.712 490.153 293.037 490.153Z" stroke="#3D3D3C" stroke-width="0.8" stroke-linecap="round" stroke-linejoin="round"/>
<rect x="195.303" y="438.263" width="11.8055" height="3.88769" fill="#F64E60"/>
<rect x="234.029" y="426.68" width="11.8055" height="3.88769" fill="#F64E60"/>
<rect x="245.834" y="460.619" width="11.8055" height="3.88769" fill="#F64E60"/>
<rect x="284.56" y="449.036" width="11.8055" height="3.88769" fill="#F64E60"/>
<rect x="185.881" y="463.457" width="11.8055" height="3.88769" fill="#F64E60"/>
<rect x="273.752" y="425.293" width="11.8055" height="3.88769" fill="#F64E60"/>
<rect x="312.478" y="413.71" width="11.8055" height="3.88769" fill="#F64E60"/>
<path d="M81.9018 419.629L80.4326 421.098" stroke="#3D3D3C" stroke-width="0.8" stroke-linecap="round" stroke-linejoin="round"/>
<path d="M291.997 513.657L286.12 519.534" stroke="#3D3D3C" stroke-width="0.8" stroke-linecap="round" stroke-linejoin="round"/>
<path d="M303.944 359.589L295.051 368.325" stroke="#3D3D3C" stroke-width="0.8" stroke-linecap="round" stroke-linejoin="round"/>
</g>
<path opacity="0.35" d="M362.426 233.656C361.342 233.656 360.272 233.712 359.215 233.813C354.281 217.167 338.879 205.02 320.632 205.02C301.782 205.02 285.964 217.982 281.591 235.479C265.202 237.551 252.525 251.532 252.525 268.484C252.527 270.561 252.722 272.634 253.109 274.675H394.791C395.397 272.14 395.704 269.543 395.706 266.936C395.706 248.556 380.806 233.656 362.426 233.656Z" fill="#009EF7"/>
<path opacity="0.59" d="M62.2589 372.27C61.5659 372.27 60.8812 372.306 60.2051 372.37C57.0493 361.723 47.1978 353.953 35.5263 353.953C23.4686 353.953 13.3508 362.244 10.5542 373.436C4.73268 374.175 -0.524798 377.286 -3.97442 382.034C-7.42404 386.781 -8.75934 392.742 -7.6644 398.507H82.9611C84.4785 392.169 83.0083 385.486 78.9714 380.369C74.9345 375.253 68.776 372.268 62.2589 372.27Z" fill="#009EF7"/>
<path d="M97.9922 258.347L109.57 314.031C153.549 319.367 133.973 294.243 155.476 298.511C176.979 302.779 157.81 276.242 175.977 277.084L180.681 269.375C149.597 260.784 153.337 297.231 135.099 272.211C116.862 247.192 97.9922 258.347 97.9922 258.347Z" fill="#4F4F5B"/>
<mask id="mask31_36_3290" style="mask-type:luminance" maskUnits="userSpaceOnUse" x="97" y="255" width="84" height="60">
<path fill-rule="evenodd" clip-rule="evenodd" d="M97.9922 258.347L109.57 314.031C153.549 319.367 133.973 294.243 155.476 298.511C176.979 302.779 157.81 276.242 175.977 277.084L180.681 269.375C149.597 260.784 153.337 297.231 135.099 272.211C116.862 247.192 97.9922 258.347 97.9922 258.347Z" fill="white"/>
</mask>
<g mask="url(#mask31_36_3290)">
<path d="M172.768 266.487C172.768 266.487 170.937 276.772 174.298 280.669C177.66 284.567 179.443 277.363 179.443 277.363L180.681 269.375L175.798 262.678" fill="#049C4F"/>
<path d="M172.768 266.487C172.768 266.487 170.937 276.772 174.298 280.669C177.66 284.567 179.443 277.363 179.443 277.363L180.681 269.375L175.798 262.678" stroke="#3D3D3C" stroke-width="0.8" stroke-linecap="round" stroke-linejoin="round"/>
</g>
<path fill-rule="evenodd" clip-rule="evenodd" d="M97.9922 258.347L109.57 314.031C153.549 319.367 133.973 294.243 155.476 298.511C176.979 302.779 157.81 276.242 175.977 277.084L180.681 269.375C149.597 260.784 153.337 297.231 135.099 272.211C116.862 247.192 97.9922 258.347 97.9922 258.347Z" stroke="#3D3D3C" stroke-width="0.8" stroke-linecap="round" stroke-linejoin="round"/>
<path d="M206.355 288.638C204.62 295.58 199.371 315.872 199.371 315.872L181.921 302.788L191.811 282.722L206.355 288.638Z" fill="#F5F6F7"/>
<mask id="mask32_36_3290" style="mask-type:luminance" maskUnits="userSpaceOnUse" x="181" y="282" width="26" height="34">
<path fill-rule="evenodd" clip-rule="evenodd" d="M206.355 288.638C204.62 295.58 199.371 315.872 199.371 315.872L181.921 302.788L191.811 282.722L206.355 288.638Z" fill="white"/>
</mask>
<g mask="url(#mask32_36_3290)">
<path d="M215.122 308.154C207.49 298.24 199.38 295.301 197.317 289.572C195.253 283.844 212.354 289.061 212.354 289.061L210.961 304.253L206.922 310.324" fill="#CFCFD0"/>
</g>
<path fill-rule="evenodd" clip-rule="evenodd" d="M206.355 288.638C204.62 295.58 199.371 315.872 199.371 315.872L181.921 302.788L191.811 282.722L206.355 288.638Z" stroke="#3D3D3C" stroke-width="0.8" stroke-linecap="round" stroke-linejoin="round"/>
<path d="M209.352 260.907C206.46 256.734 200.514 255.264 196.073 257.624C194.466 258.457 193.181 259.8 192.422 261.443C189.332 261.319 186.22 261.934 183.44 263.412C175.549 267.604 173.319 277.014 178.458 284.428C183.597 291.843 193.422 289.516 201.313 285.324C208.418 281.548 211.763 277.933 208.347 271.429C211.25 268.748 211.798 264.436 209.352 260.907Z" fill="#4F4F5B" stroke="#3D3D3C" stroke-width="0.8" stroke-linecap="round" stroke-linejoin="round"/>
<path d="M198.35 291.265C210.566 293.254 224.12 287.38 207.071 268.724C199.895 271.759 194.053 266.667 194.013 266.632L194.012 266.632C194.066 266.717 202.311 279.457 185.64 284.337C185.756 284.522 185.855 284.708 185.982 284.892C186.579 285.734 187.295 286.486 188.108 287.123" fill="#F5F6F7"/>
<path d="M198.35 291.265C210.566 293.254 224.12 287.38 207.071 268.724C199.895 271.759 194.053 266.667 194.013 266.632L194.012 266.632C194.066 266.717 202.311 279.457 185.64 284.337C185.756 284.522 185.855 284.708 185.982 284.892C186.579 285.734 187.295 286.486 188.108 287.123" stroke="#3D3D3C" stroke-width="0.8" stroke-linecap="round" stroke-linejoin="round"/>
<path d="M190.549 282.821C176.135 281.367 182.952 296.583 195.604 289.749L190.549 282.821Z" fill="#F5F6F7"/>
<path d="M190.549 282.821C176.135 281.367 182.952 296.583 195.604 289.749" stroke="#3D3D3C" stroke-width="0.8" stroke-linecap="round" stroke-linejoin="round"/>
<path d="M196.81 313.04C196.81 313.04 201.425 309.517 201.311 308.313C201.465 297.104 178.458 284.428 182.457 297.144" fill="#ECEDEE"/>
<path d="M196.81 313.04C196.81 313.04 201.425 309.517 201.311 308.313C201.465 297.104 178.458 284.428 182.457 297.144" stroke="#3D3D3C" stroke-width="0.8" stroke-linecap="round" stroke-linejoin="round"/>
<path d="M179.918 311.13C179.918 311.13 131.665 327.995 127.552 330.103C123.44 332.211 94.4871 340.056 92.2252 340.32C89.9633 340.583 73.5415 333.529 70.0458 332.211C70.0458 332.211 67.5784 335.654 76.6258 339.071C76.6258 339.071 58.5308 339.607 57.9139 339.071C57.2971 338.536 52.7048 345.299 73.1988 343.982L60.3815 346.968C60.3815 346.968 55.6521 353.468 76.6259 349.34C92.6653 346.183 69.0753 354.941 74.4793 358.695L84.1781 353.339L177.07 340.128L179.918 311.13Z" fill="#F5F6F7"/>
<mask id="mask33_36_3290" style="mask-type:luminance" maskUnits="userSpaceOnUse" x="57" y="311" width="123" height="48">
<path fill-rule="evenodd" clip-rule="evenodd" d="M179.918 311.13C179.918 311.13 131.665 327.995 127.552 330.103C123.44 332.211 94.4871 340.056 92.2252 340.32C89.9633 340.583 73.5415 333.529 70.0458 332.211C70.0458 332.211 67.5784 335.654 76.6258 339.071C76.6258 339.071 58.5308 339.607 57.9139 339.071C57.2971 338.536 52.7048 345.299 73.1988 343.982L60.3815 346.968C60.3815 346.968 55.6521 353.468 76.6259 349.34C92.6653 346.183 69.0753 354.941 74.4793 358.695L84.1781 353.339L177.07 340.128L179.918 311.13Z" fill="white"/>
</mask>
<g mask="url(#mask33_36_3290)">
<path d="M149.107 330.069C140.066 339.631 134.155 347.107 125.636 352.149C117.117 357.191 147.194 350.932 147.194 350.932L152.584 330.591" fill="#CFCFD0"/>
</g>
<path fill-rule="evenodd" clip-rule="evenodd" d="M179.918 311.13C179.918 311.13 131.665 327.995 127.552 330.103C123.44 332.211 94.4871 340.056 92.2252 340.32C89.9633 340.583 73.5415 333.529 70.0458 332.211C70.0458 332.211 67.5784 335.654 76.6258 339.071C76.6258 339.071 58.5308 339.607 57.9139 339.071C57.2971 338.536 52.7048 345.299 73.1988 343.982L60.3815 346.968C60.3815 346.968 55.6521 353.468 76.6259 349.34C92.6653 346.183 69.0753 354.941 74.4793 358.695L84.1781 353.339L177.07 340.128L179.918 311.13Z" stroke="#3D3D3C" stroke-width="0.8" stroke-linecap="round" stroke-linejoin="round"/>
<path d="M166.318 315.107C166.318 315.107 157.593 333.488 157.127 346.257C157.127 346.257 186.048 343.159 198.973 334.518C201.527 332.81 229.295 294.42 166.318 315.107Z" fill="#ECEDEE" stroke="#3D3D3C" stroke-width="0.8" stroke-linecap="round" stroke-linejoin="round"/>
<path d="M39.2583 389.265L100.705 455.861C107.765 463.513 119.569 464.327 127.613 457.717L196.819 400.845L163.322 363.625L143.983 373.987L113.697 425.244L48.6737 380.157L39.2583 389.265Z" fill="#F5F6F7"/>
<mask id="mask34_36_3290" style="mask-type:luminance" maskUnits="userSpaceOnUse" x="39" y="363" width="158" height="100">
<path fill-rule="evenodd" clip-rule="evenodd" d="M39.2583 389.265L100.705 455.861C107.765 463.513 119.569 464.327 127.613 457.717L196.819 400.845L163.322 363.625L143.983 373.987L113.697 425.244L48.6737 380.157L39.2583 389.265Z" fill="white"/>
</mask>
<g mask="url(#mask34_36_3290)">
<path d="M111.728 415.433C97.9928 413.173 129.776 442.333 142.919 445.139C156.061 447.945 126.158 417.172 126.158 417.172L109.641 407.65" fill="#CFCFD0"/>
<path d="M51.5263 422.41C51.2445 402.256 75.6863 392.024 75.6863 392.024L42.234 374.912L32.9417 392.024" fill="#049C4F"/>
<mask id="mask35_36_3290" style="mask-type:luminance" maskUnits="userSpaceOnUse" x="32" y="374" width="44" height="49">
<path fill-rule="evenodd" clip-rule="evenodd" d="M51.5263 422.41C51.2445 402.256 75.6863 392.024 75.6863 392.024L42.234 374.912L32.9417 392.024" fill="white"/>
</mask>
<g mask="url(#mask35_36_3290)">
<path d="M45.5792 412.905C45.3933 409.029 56.7299 390.717 68.4383 389.652C80.1466 388.586 76.6155 394.905 76.6155 394.905L61.562 408.657" fill="#ECEDEE"/>
<path d="M45.5792 412.905C45.3933 409.029 56.7299 390.717 68.4383 389.652C80.1466 388.586 76.6155 394.905 76.6155 394.905L61.562 408.657" stroke="#3D3D3C" stroke-width="0.8" stroke-linecap="round" stroke-linejoin="round"/>
</g>
<path d="M51.5263 422.41C51.2445 402.256 75.6863 392.024 75.6863 392.024L42.234 374.912L32.9417 392.024" stroke="#3D3D3C" stroke-width="0.8" stroke-linecap="round" stroke-linejoin="round"/>
</g>
<path fill-rule="evenodd" clip-rule="evenodd" d="M39.2583 389.265L100.705 455.861C107.765 463.513 119.569 464.327 127.613 457.717L196.819 400.845L163.322 363.625L143.983 373.987L113.697 425.244L48.6737 380.157L39.2583 389.265Z" stroke="#3D3D3C" stroke-width="0.8" stroke-linecap="round" stroke-linejoin="round"/>
<path d="M54.0091 383.025C53.2899 382.018 48.4079 376.909 45.5024 373.893C44.2667 372.606 42.2654 372.441 40.836 373.509C32.1182 380.012 3.54046 401.649 2.31454 406.727C0.867141 412.724 32.2375 387.119 46.5049 397.664C46.5049 397.664 39.2581 384.992 54.0091 383.025Z" fill="#4F4F5B" stroke="#3D3D3C" stroke-width="0.8" stroke-linecap="round" stroke-linejoin="round"/>
<path d="M113.323 412.905C113.323 412.905 124.206 444.017 147.882 446.018L197.598 391.038L154.218 357.314L113.323 412.905Z" fill="#049C4F"/>
<mask id="mask36_36_3290" style="mask-type:luminance" maskUnits="userSpaceOnUse" x="113" y="357" width="85" height="90">
<path fill-rule="evenodd" clip-rule="evenodd" d="M113.323 412.905C113.323 412.905 124.206 444.017 147.882 446.018L197.598 391.038L154.218 357.314L113.323 412.905Z" fill="white"/>
</mask>
<g mask="url(#mask36_36_3290)">
<path d="M115.457 397.664C115.472 399.056 115.533 400.39 115.64 401.666C117.099 419.397 126.608 426.127 126.608 426.127L157.127 382.995V394.905L124.006 441.683L106.165 406.668" fill="#ECEDEE"/>
<path d="M115.457 397.664C115.472 399.056 115.533 400.39 115.64 401.666C117.099 419.397 126.608 426.127 126.608 426.127L157.127 382.995V394.905L124.006 441.683L106.165 406.668" stroke="#3D3D3C" stroke-width="0.8" stroke-linecap="round" stroke-linejoin="round"/>
</g>
<path fill-rule="evenodd" clip-rule="evenodd" d="M113.323 412.905C113.323 412.905 124.206 444.017 147.882 446.018L197.598 391.038L154.218 357.314L113.323 412.905Z" stroke="#3D3D3C" stroke-width="0.8" stroke-linecap="round" stroke-linejoin="round"/>
<path d="M306.408 511.261L238.587 464.117L157.001 417.506C139.173 407.321 133.184 384.483 143.719 366.86L153.81 349.978L246.444 439.304L317.574 503.817L306.408 511.261Z" fill="#F5F6F7"/>
<mask id="mask37_36_3290" style="mask-type:luminance" maskUnits="userSpaceOnUse" x="138" y="349" width="180" height="163">
<path fill-rule="evenodd" clip-rule="evenodd" d="M306.408 511.261L238.587 464.117L157.001 417.506C139.173 407.321 133.184 384.483 143.719 366.86L153.81 349.978L246.444 439.304L317.574 503.817L306.408 511.261Z" fill="white"/>
</mask>
<g mask="url(#mask37_36_3290)">
<path d="M181.921 451.596C214.651 448.119 216.204 427.608 225.385 418.997C234.565 410.385 195.604 419.954 195.604 419.954L179.918 435.764" fill="#CFCFD0"/>
<path d="M268.966 498.607C287.381 492.299 294.33 466.576 296.38 467.942L317.574 503.817L289.595 518.121L245.55 501.717" fill="#049C4F"/>
<mask id="mask38_36_3290" style="mask-type:luminance" maskUnits="userSpaceOnUse" x="245" y="467" width="73" height="52">
<path fill-rule="evenodd" clip-rule="evenodd" d="M268.966 498.607C287.381 492.299 294.33 466.576 296.38 467.942L317.574 503.817L289.595 518.121L245.55 501.717" fill="white"/>
</mask>
<g mask="url(#mask38_36_3290)">
<path d="M273.984 504.74C284.856 505.019 299.073 476.027 299.073 476.027L285.971 472.96" fill="#ECEDEE"/>
<path d="M273.984 504.74C284.856 505.019 299.073 476.027 299.073 476.027L285.971 472.96" stroke="#3D3D3C" stroke-width="0.8" stroke-linecap="round" stroke-linejoin="round"/>
</g>
<path d="M268.966 498.607C287.381 492.299 294.33 466.576 296.38 467.942L317.574 503.817L289.595 518.121L245.55 501.717" stroke="#3D3D3C" stroke-width="0.8" stroke-linecap="round" stroke-linejoin="round"/>
</g>
<path fill-rule="evenodd" clip-rule="evenodd" d="M306.408 511.261L238.587 464.117L157.001 417.506C139.173 407.321 133.184 384.483 143.719 366.86L153.81 349.978L246.444 439.304L317.574 503.817L306.408 511.261Z" stroke="#3D3D3C" stroke-width="0.8" stroke-linecap="round" stroke-linejoin="round"/>
<path d="M296.38 505.265C296.986 506.113 301.601 512.07 305.32 516.859C306.564 518.466 308.42 519.482 310.443 519.663C312.467 519.845 314.475 519.175 315.984 517.816C327.264 507.655 351.004 485.843 352.105 481.279C353.553 475.283 318.09 501.891 303.823 491.345C303.823 491.345 320.366 506.092 296.38 505.265Z" fill="#4F4F5B" stroke="#3D3D3C" stroke-width="0.8" stroke-linecap="round" stroke-linejoin="round"/>
<path d="M146.882 353.645L139.15 369.32C130.791 386.268 136.316 406.787 152.055 417.247L188.824 441.683C188.824 441.683 217.245 435.346 224.248 415.005L179.675 374.92L150.203 356.013" fill="#049C4F"/>
<mask id="mask39_36_3290" style="mask-type:luminance" maskUnits="userSpaceOnUse" x="135" y="353" width="90" height="89">
<path fill-rule="evenodd" clip-rule="evenodd" d="M146.882 353.645L139.15 369.32C130.791 386.268 136.316 406.787 152.055 417.247L188.824 441.683C188.824 441.683 217.245 435.346 224.248 415.005L179.675 374.92L150.203 356.013" fill="white"/>
</mask>
<g mask="url(#mask39_36_3290)">
<path d="M167.46 364.94C146.733 398.042 216.408 433.706 216.408 433.706C216.408 433.706 232.611 428.357 238.859 414.976L232.726 421.109L189.031 454.84L174.278 438.021C174.278 438.021 189.013 442.195 203.443 430.62C203.443 430.62 140.547 397.664 163.322 363.626" fill="#ECEDEE"/>
<path d="M167.46 364.94C146.733 398.042 216.408 433.706 216.408 433.706C216.408 433.706 232.611 428.357 238.859 414.976L232.726 421.109L189.031 454.84L174.278 438.021C174.278 438.021 189.013 442.195 203.443 430.62C203.443 430.62 140.547 397.664 163.322 363.626" stroke="#3D3D3C" stroke-width="0.8" stroke-linecap="round" stroke-linejoin="round"/>
</g>
<path d="M146.882 353.645L139.15 369.32C130.791 386.268 136.316 406.787 152.055 417.247L188.824 441.683C188.824 441.683 217.245 435.346 224.248 415.005L179.676 374.92L150.203 356.013" stroke="#3D3D3C" stroke-width="0.8" stroke-linecap="round" stroke-linejoin="round"/>
<path d="M134.312 351.753C151.315 367.852 184.834 380.816 192.837 379.619C192.837 379.619 209.152 325.996 201.31 308.313L182.457 297.144C182.457 297.144 158.67 312.411 134.312 351.753Z" fill="#ECEDEE"/>
<mask id="mask40_36_3290" style="mask-type:luminance" maskUnits="userSpaceOnUse" x="134" y="297" width="70" height="83">
<path fill-rule="evenodd" clip-rule="evenodd" d="M134.312 351.753C151.315 367.852 184.834 380.816 192.837 379.619C192.837 379.619 209.152 325.996 201.31 308.313L182.457 297.144C182.457 297.144 158.67 312.411 134.312 351.753Z" fill="white"/>
</mask>
<g mask="url(#mask40_36_3290)">
<path d="M196.672 337.08C196.672 337.08 192.226 356.31 186.001 362.924C186.001 362.924 195.783 370.872 206.899 370.872L215.124 342.193C215.124 342.193 205.739 349.765 196.672 337.08Z" fill="#049C4F" stroke="#3D3D3C" stroke-width="0.8" stroke-linecap="round" stroke-linejoin="round"/>
<path d="M162.128 323.579C158.702 324.823 184.058 324.651 181.183 325.801C137.272 343.364 169.281 371.144 192.837 379.619C218.331 388.791 123.663 363.626 123.663 363.626L123.218 334.912L155.461 327.285" fill="#CFCFD0"/>
</g>
<path fill-rule="evenodd" clip-rule="evenodd" d="M134.312 351.753C151.315 367.852 184.834 380.816 192.837 379.619C192.837 379.619 209.152 325.996 201.31 308.313L182.457 297.144C182.457 297.144 158.67 312.411 134.312 351.753Z" stroke="#3D3D3C" stroke-width="0.8" stroke-linecap="round" stroke-linejoin="round"/>
<path d="M162.129 302.413C162.129 302.413 113.875 319.278 109.763 321.386C105.65 323.495 76.6973 331.339 74.4354 331.603C72.1735 331.866 55.7517 324.812 52.256 323.495C52.256 323.495 49.7886 326.938 58.8361 330.355C58.8361 330.355 40.741 330.89 40.1241 330.355C39.5073 329.819 34.915 336.583 55.409 335.265L42.5917 338.251C42.5917 338.251 37.8623 344.752 58.8361 340.623C74.8754 337.466 51.2854 346.224 56.6894 349.978L66.3883 344.622L159.28 331.411L162.129 302.413Z" fill="#F5F6F7"/>
<mask id="mask41_36_3290" style="mask-type:luminance" maskUnits="userSpaceOnUse" x="39" y="302" width="124" height="48">
<path fill-rule="evenodd" clip-rule="evenodd" d="M162.129 302.413C162.129 302.413 113.875 319.278 109.763 321.386C105.65 323.495 76.6973 331.339 74.4354 331.603C72.1735 331.866 55.7517 324.812 52.256 323.495C52.256 323.495 49.7886 326.938 58.8361 330.355C58.8361 330.355 40.741 330.89 40.1241 330.355C39.5073 329.819 34.915 336.583 55.409 335.265L42.5917 338.251C42.5917 338.251 37.8623 344.752 58.8361 340.623C74.8754 337.466 51.2854 346.224 56.6894 349.978L66.3883 344.622L159.28 331.411L162.129 302.413Z" fill="white"/>
</mask>
<g mask="url(#mask41_36_3290)">
<path d="M149.976 303.873C144.413 322.419 136.241 323.454 132.938 337.541C129.635 351.628 148.064 331.982 148.064 331.982L151.889 313.04" fill="#CFCFD0"/>
</g>
<path fill-rule="evenodd" clip-rule="evenodd" d="M162.129 302.413C162.129 302.413 113.875 319.278 109.763 321.386C105.65 323.495 76.6973 331.339 74.4354 331.603C72.1735 331.866 55.7517 324.812 52.256 323.495C52.256 323.495 49.7886 326.938 58.836 330.355C58.836 330.355 40.741 330.89 40.1241 330.355C39.5073 329.819 34.915 336.583 55.409 335.265L42.5917 338.251C42.5917 338.251 37.8623 344.752 58.8361 340.623C74.8754 337.466 51.2854 346.224 56.6894 349.978L66.3883 344.622L159.28 331.411L162.129 302.413Z" stroke="#3D3D3C" stroke-width="0.8" stroke-linecap="round" stroke-linejoin="round"/>
<path d="M193.059 304.294C190.041 298.669 178.048 296.694 148.528 306.391C148.528 306.391 139.803 324.771 139.337 337.541C139.337 337.541 167.654 333.463 181.183 325.801" fill="#ECEDEE"/>
<mask id="mask42_36_3290" style="mask-type:luminance" maskUnits="userSpaceOnUse" x="139" y="299" width="55" height="39">
<path fill-rule="evenodd" clip-rule="evenodd" d="M193.059 304.294C190.041 298.669 178.048 296.694 148.528 306.391C148.528 306.391 139.803 324.771 139.337 337.541C139.337 337.541 167.654 333.463 181.183 325.801" fill="white"/>
</mask>
<g mask="url(#mask42_36_3290)">
<path d="M158.804 298.949C148.528 306.391 146.587 338.42 146.587 338.42H126.794L139.337 294.706" fill="#ECEDEE"/>
<path d="M158.804 298.949C148.528 306.391 146.587 338.42 146.587 338.42H126.794L139.337 294.706" stroke="#3D3D3C" stroke-width="0.8" stroke-linecap="round" stroke-linejoin="round"/>
</g>
<path d="M193.059 304.294C190.041 298.669 178.048 296.694 148.528 306.391C148.528 306.391 139.803 324.771 139.337 337.541C139.337 337.541 167.654 333.463 181.183 325.801" stroke="#3D3D3C" stroke-width="0.8" stroke-linecap="round" stroke-linejoin="round"/>
<path d="M203.501 271.087C203.763 270.87 204.1 270.767 204.439 270.799C204.777 270.831 205.089 270.996 205.306 271.258L206.685 272.926C207.136 273.471 207.06 274.279 206.514 274.73C205.969 275.181 205.161 275.105 204.71 274.559L203.33 272.891C202.879 272.346 202.956 271.538 203.501 271.087L203.501 271.087Z" fill="#3D3D3C"/>
<path d="M201.648 267.057C198.555 269.391 198.914 271.177 200.943 269.844C202.971 268.51 203.668 265.531 201.648 267.057Z" fill="#3D3D3C"/>
<path d="M207.76 270.947C213.336 270.407 215.093 275.312 211.792 276.407L207.76 270.947Z" fill="#F5F6F7"/>
<path d="M207.76 270.947C213.336 270.407 215.093 275.312 211.792 276.407" stroke="#3D3D3C" stroke-width="0.8" stroke-linecap="round" stroke-linejoin="round"/>
<circle opacity="0.27" cx="200.108" cy="280.161" r="4.3041" fill="#CFCFD0"/>
<path d="M205.698 279.846C208.536 280.778 210.374 278.925 210.374 278.925L205.698 279.846Z" fill="white"/>
<path d="M205.698 279.846C208.536 280.778 210.374 278.925 210.374 278.925" stroke="#3D3D3C" stroke-width="0.8" stroke-linecap="round" stroke-linejoin="round"/>
<path d="M189.03 285.467C188.398 285.106 187.476 285.46 187.249 286.152C187.021 286.843 187.552 287.676 188.275 287.761" stroke="#3D3D3C" stroke-width="0.8" stroke-linecap="round" stroke-linejoin="round"/>
<path d="M161.104 279.536C158.714 280.764 156.755 282.69 155.487 285.059" stroke="#3D3D3C" stroke-width="0.8" stroke-linecap="round" stroke-linejoin="round"/>
<path d="M128.743 283.96C124.609 282.226 120.081 281.65 115.645 282.293" stroke="#3D3D3C" stroke-width="0.8" stroke-linecap="round" stroke-linejoin="round"/>
<path d="M185.605 269.74C186.356 272.284 186.345 274.992 185.573 277.53" stroke="#3D3D3C" stroke-width="0.8" stroke-linecap="round" stroke-linejoin="round"/>
<path d="M169.339 343.247C171.168 346.465 170.917 350.749 168.724 353.732" stroke="#3D3D3C" stroke-width="0.8" stroke-linecap="round" stroke-linejoin="round"/>
<path d="M110.571 322.07L111.279 324.311" stroke="#3D3D3C" stroke-width="0.8" stroke-linecap="round" stroke-linejoin="round"/>
<path d="M113.218 424.641C113.359 425.647 113.232 426.671 112.85 427.611" stroke="#3D3D3C" stroke-width="0.8" stroke-linecap="round" stroke-linejoin="round"/>
<path d="M162.29 414.976L167.494 416.463" stroke="#3D3D3C" stroke-width="0.8" stroke-linecap="round" stroke-linejoin="round"/>
<path d="M237.049 463.356L242.604 458.871" stroke="#3D3D3C" stroke-width="0.8" stroke-linecap="round" stroke-linejoin="round"/>
<path d="M31.4544 403.268L31.4116 396.495C29.8493 395.919 28.3944 397.514 27.5154 398.928C24.0177 404.558 21.0458 410.497 18.6375 416.672" stroke="#3D3D3C" stroke-width="0.8" stroke-linecap="round" stroke-linejoin="round"/>
<path d="M322.747 482.967C322.476 485.696 322.209 488.425 321.946 491.155L332.614 482.548" stroke="#3D3D3C" stroke-width="0.8" stroke-linecap="round" stroke-linejoin="round"/>
</g>
</svg>
